<svg width="141" height="130" viewBox="0 0 141 130" fill="none" xmlns="http://www.w3.org/2000/svg">
<path fill-rule="evenodd" clip-rule="evenodd" d="M81.4998 54.6056C81.4998 57.8363 80.1804 60.7509 78.0694 62.8579C75.9584 64.9649 73.0382 66.2642 69.8189 66.2642C66.582 66.2642 63.6618 64.9649 61.5508 62.8579C59.4398 60.7509 58.138 57.8363 58.138 54.6232C58.138 51.3925 59.4398 48.4778 61.5508 46.3709C63.6618 44.2639 66.582 42.9646 69.8013 42.9646C73.0382 42.9646 75.9584 44.2639 78.0694 46.3709C80.1804 48.4603 81.4998 51.3749 81.4998 54.6056Z" fill="white"/>
<path fill-rule="evenodd" clip-rule="evenodd" d="M132.305 60.6983C132.674 60.0662 133.044 59.3463 133.395 58.5035C133.747 57.6783 134.064 56.7828 134.31 55.8522C135.594 51.0062 135.19 44.4219 128.734 37.8903L128.716 37.8728C127.485 36.6261 126.165 35.5024 124.758 34.4489C123.351 33.413 121.855 32.4649 120.272 31.6045C112.092 27.1799 101.889 25.3012 91.2632 25.4943H91.2104C91.0169 25.4943 90.5068 25.5294 89.7151 25.5646C89.0115 25.5997 88.0439 25.6699 86.8829 25.7577C84.033 25.9684 80.2508 26.2493 77.4537 26.5303C82.1331 27.3906 86.4783 28.3387 90.7179 29.5854C96.4704 31.2885 102.065 33.5359 108.134 36.8895C109.013 37.3811 109.858 37.8728 110.667 38.3644C120.448 44.299 125.321 50.6375 127.344 56.3439C128.61 59.9257 128.769 63.2617 128.276 66.1062C128.382 65.9832 128.505 65.8603 128.61 65.7374C129.947 64.2977 131.179 62.6121 132.305 60.6983ZM45.2432 86.3682H45.2784C46.7913 86.6842 48.3921 86.93 50.0809 87.1583C51.7873 87.369 53.5465 87.5446 55.3409 87.6499C64.7525 88.2293 75.9936 87.4392 88.3254 84.8933C89.5216 84.6475 90.6475 84.4017 91.703 84.1559C92.7233 83.91 93.8316 83.6291 95.0103 83.3131C95.239 83.2604 95.4501 83.1902 95.6787 83.1375C93.8316 83.2604 92.0724 83.3306 90.4188 83.3833H90.4012C87.481 83.4711 84.4552 83.4535 81.4118 83.3306C78.3685 83.2077 75.2723 82.9795 72.1762 82.6985C56.3612 81.2061 40.9332 77.8349 33.6503 75.9387C31.7328 75.4471 29.9384 74.9379 28.2496 74.4462C27.5635 74.2355 26.8774 74.0424 26.2089 73.8142C26.5784 74.5867 27.0006 75.3417 27.4931 76.0791C30.3606 80.416 35.6733 84.4192 45.2432 86.3682ZM123.562 61.4357C123.79 63.9992 123.298 66.2115 122.295 68.1078C121.31 70.0041 119.815 71.6545 118.073 73.0943C115.733 74.0775 113.323 74.7798 110.913 75.3241C108.38 75.9036 105.9 76.2898 103.507 76.6059C97.1037 77.4838 91.1049 77.8701 85.5459 77.9052C79.9869 77.9403 74.8501 77.6594 70.2059 77.2029C62.4655 76.4303 56.0094 75.1837 51.0485 74.2355C50.1161 74.06 49.2365 73.8844 48.181 73.6912H48.1634C42.4989 72.6378 37.8019 71.6194 33.7734 70.5835C30.1671 69.6529 27.1237 68.7223 24.485 67.7215C24.2035 65.3512 24.3442 63.2793 24.5729 61.8395C24.6257 61.5235 24.6785 61.2426 24.7312 61.0143C24.784 60.7861 24.8368 60.5929 24.872 60.4173C27.0885 52.6216 31.7855 45.651 37.4149 39.769C38.5232 38.6102 39.6666 37.504 40.8101 36.4506C41.936 35.4146 43.1322 34.3963 44.3636 33.413C45.7182 32.3244 47.0903 31.2709 48.4625 30.2701C48.8495 29.9892 49.1134 29.7961 49.2893 29.6731C49.4652 29.5327 49.6411 29.4273 49.7643 29.3395C55.5872 29.3044 59.8444 29.6731 63.2923 29.9892L63.7145 30.0243C77.1019 31.2183 87.1116 33.7993 93.0224 35.6956C94.1659 36.0643 95.1686 36.3979 95.9778 36.7139C96.7694 36.9949 97.4379 37.2582 97.9657 37.4865C110.192 42.473 117.827 49.6016 121.345 55.5713C122.014 56.695 122.524 57.7661 122.876 58.7844C123.28 59.7326 123.474 60.628 123.562 61.4357ZM40.4407 29.7258C38.8222 29.8312 37.1862 29.9716 35.5326 30.1297C34.4771 30.235 33.3512 30.393 32.1726 30.6213C30.9939 30.8495 29.7801 31.1129 28.5311 31.4465C22.1628 33.1496 15.2669 36.2574 10.6578 40.366C9.54957 41.3493 8.35333 42.6837 7.38578 44.2288C6.25991 46.0197 5.45069 48.1267 5.4331 50.3917C5.41551 52.6216 6.18954 55.0621 8.26537 57.5554C9.49679 59.0303 11.168 60.5402 13.3846 62.0151C14.5456 62.7877 15.7419 63.5427 17.0261 64.2626C17.6594 64.6137 18.2927 64.9649 18.9611 65.2985C18.9611 64.5786 18.9963 63.8938 19.0667 63.2091C19.3834 59.4868 20.4037 56.2736 21.3712 54.0438C22.1101 52.288 23.0072 50.5497 23.9924 48.8466C24.9775 47.161 26.033 45.5456 27.1589 43.983C31.4161 38.101 36.5177 33.097 40.4407 29.7258ZM102.839 86.614C97.8425 88.3171 91.9493 89.95 84.9654 91.1966C78.0166 92.4257 69.9772 93.2509 60.6888 93.2861H60.548C58.525 93.2861 56.6251 93.2334 54.8307 93.1105C53.0188 92.9876 51.2948 92.7944 49.6236 92.5662C41.1443 91.3898 35.0752 88.9843 32.2429 87.2461C31.1522 86.5789 30.1319 85.8765 29.182 85.1567C28.232 84.4368 27.37 83.6993 26.596 82.9619C22.7434 79.3098 20.6324 75.3417 19.6472 71.4614C14.4401 69.372 10.3764 67.0718 7.31542 64.4557C4.02576 61.6464 1.89716 58.486 0.700921 54.8514C0.296311 53.6048 0.0676183 52.3757 0.014843 51.1642C-0.0379322 49.9527 0.0500265 48.7763 0.278719 47.6175C1.42218 41.8585 5.89048 36.9246 10.2708 33.7642C10.9217 33.3077 11.6606 32.816 12.4698 32.3244C13.2614 31.8503 14.1586 31.3412 15.1613 30.8144C20.1574 28.2158 27.1237 25.5646 34.2484 24.5989C36.764 24.2477 39.262 24.0194 41.7073 23.8614C43.9942 23.721 46.2811 23.6507 48.5505 23.6507C51.3651 21.772 54.2326 20.0338 57.1001 18.4184C60.0906 16.7504 63.0988 15.2053 66.107 13.8006C81.3767 6.67207 96.4352 2.84441 108.081 1.03593C108.222 0.91302 108.345 0.807672 108.468 0.719881C109.189 0.210697 110.086 0 110.86 0C111.934 0 112.883 0.45651 113.57 1.17639C114.256 1.89627 114.695 2.89708 114.695 4.00324C114.695 5.1094 114.273 6.11021 113.57 6.83009C112.883 7.54997 111.916 8.00648 110.86 8.00648C110.28 8.00648 109.735 7.88358 109.26 7.63776C109.136 7.58509 109.013 7.51486 108.908 7.44462C108.626 7.26904 108.362 7.04079 108.116 6.79498C105.776 7.0759 103.402 7.44462 101.009 7.88358C98.3351 8.3752 95.6787 8.95462 93.0752 9.62183C80.9721 12.6769 68.9569 17.5756 58.1731 23.9317C59.1407 24.0019 60.0906 24.0721 61.0054 24.1599C63.134 24.353 65.2098 24.5989 67.2153 24.8622C67.5671 24.6164 67.9542 24.3882 68.3764 24.1599C68.9745 23.8614 69.6781 23.5805 70.4346 23.3171C74.0937 22.0881 79.1777 21.4735 81.7637 21.2277C88.2198 20.6132 93.3566 20.3674 98.036 20.5956C102.768 20.8239 107.008 21.5086 111.634 22.7201H111.652C114.889 23.5805 117.809 24.6164 120.43 25.7928C123.051 26.9692 125.356 28.2861 127.361 29.6731C137.881 36.9949 140.643 46.7572 140.151 52.7269C140.063 53.7102 139.922 54.7461 139.711 55.8347C139.5 56.9057 139.236 57.9768 138.884 59.0654C137.072 64.6664 133.184 70.5132 125.62 74.973C124.793 75.4646 124.019 75.886 123.263 76.2898C122.559 76.6586 121.802 77.0097 121.028 77.3784C120.413 77.8525 119.744 78.3441 119.023 78.8358C118.284 79.3449 117.493 79.8366 116.683 80.3282C112.549 82.8214 107.659 84.9811 102.839 86.614Z" fill="white"/>
<path fill-rule="evenodd" clip-rule="evenodd" d="M29.1468 122.432C25.734 124.065 23.623 125.049 20.5268 125.049C15.5659 125.049 12.0476 122.011 12.0476 117.762C12.0476 113.548 15.6011 110.546 20.6675 110.546C23.6054 110.546 26.2617 111.529 28.8653 112.986V107.684C26.5256 106.297 23.5526 105.594 20.2453 105.594C11.1328 105.594 5.92567 111.511 5.92567 117.85C5.92567 123.978 10.5347 129.982 19.788 129.982C23.3063 129.982 25.8219 129.315 29.1468 127.612V122.432Z" fill="white"/>
<path fill-rule="evenodd" clip-rule="evenodd" d="M52.0336 106.244H45.1553L35.5502 130H41.8304L43.6072 125.294H54.2502L56.2029 130H62.5887L52.0336 106.244ZM52.5262 121.151H45.1904L48.6736 111.915L52.5262 121.151Z" fill="white"/>
<path fill-rule="evenodd" clip-rule="evenodd" d="M68.1125 130H74.0409V120.448H78.7555C84.2441 120.448 86.6014 116.621 86.6014 113.267C86.6014 110.019 84.1562 106.226 78.7203 106.226H68.1125V130ZM74.0409 110.598H76.1343C79.3536 110.598 80.4971 111.336 80.4971 113.355C80.4971 115.128 79.5119 116.112 76.8028 116.112H74.0409V110.598Z" fill="white"/>
<path fill-rule="evenodd" clip-rule="evenodd" d="M110.069 125.646H98.4582V119.939H109.312V115.585H98.4582V110.598H109.84V106.244H92.5122V130H110.069V125.646Z" fill="white"/>
<path fill-rule="evenodd" clip-rule="evenodd" d="M133.22 107.455C130.211 106.174 127.801 105.612 125.163 105.612C119.639 105.612 116.085 108.333 116.085 112.442C116.085 120.975 128.206 119.553 128.206 123.451C128.206 124.838 126.992 125.646 124.723 125.646C122.102 125.646 120.008 124.838 116.595 122.573V127.7C118.97 128.911 121.028 130 125.18 130C130.493 130 134.328 127.349 134.328 122.784C134.328 114.496 122.207 115.497 122.207 111.915C122.207 110.739 123.562 109.966 125.69 109.966C127.713 109.966 129.772 110.563 133.237 112.091V107.455H133.22Z" fill="white"/>
</svg>
