<svg width="267" height="80" viewBox="0 0 267 80" fill="none" xmlns="http://www.w3.org/2000/svg">
<path d="M65.868 26.7176C67.2001 32.0459 67.0623 34.9397 66.1436 39.2114C64.9493 43.9885 62.3312 47.5253 59.8508 49.7301L68.7159 80H59.9426C57.0029 68.9301 53.3283 56.7119 50.2967 45.6421C52.0881 44.6775 57.0948 41.8296 57.9216 35.1693C58.7025 28.9224 54.7981 24.0535 52.134 22.2621C49.7914 20.8382 46.3465 19.7358 43.1311 20.3789C36.8843 21.0679 32.6584 25.8909 31.6938 31.2191C31.556 31.954 31.556 32.3215 31.4641 33.332C31.4641 33.332 29.0297 40.176 28.2029 42.3349H30.0402L29.9943 60.111H51.1235L53.558 68.7464H21.267V48.8574H16.8115C18.4192 44.0344 22.5531 33.332 22.5531 33.332C23.0584 29.4736 23.2881 22.0784 31.1426 16.0152C34.8173 12.9377 40.5589 10.8707 46.7139 11.376C56.8651 12.6162 63.6173 19.5521 65.868 26.7176Z" fill="white"/>
<path d="M74.8709 18.8172C81.3015 33.0105 77.1216 46.3311 72.3446 52.6239L79.6479 79.7703H71.0125L62.5608 50.5569C67.7972 45.5502 71.0584 35.3531 68.5321 26.9473C66.2355 18.4497 59.1618 11.2841 49.1484 9.30902C38.4 7.10423 28.2488 12.6162 23.9311 20.2411C21.1751 24.421 20.7158 28.4172 20.2565 33.332C20.2565 33.332 14.8364 46.3311 12.9991 51.0622H18.7407L18.7866 71.0431H54.201L56.6814 79.9081H10.0134V58.8708L0 58.8249C0 58.8249 10.8402 34.0669 10.7943 33.332C11.4373 24.6507 15.3416 13.8564 23.6096 7.42576C27.8354 4.11858 33.4852 0.949201 41.0182 0.214272C49.1943 -0.56659 52.6852 0.903268 58.1513 2.74059C67.2919 6.6449 73.4929 15.464 74.8709 18.8172Z" fill="white"/>
<path d="M36.0575 33.6076C36.0575 28.7846 39.9618 24.8803 44.7388 24.8803C49.5618 24.8803 53.4661 28.7846 53.4661 33.6076C53.4661 38.3846 49.5618 42.243 44.7388 42.243C39.9618 42.243 36.0575 38.3846 36.0575 33.6076Z" fill="white"/>
<path d="M246.109 74.7636V73.4316L249.187 58.4115C248.36 59.3761 247.625 60.2029 246.89 60.8C246.615 61.0756 246.385 61.2593 246.109 61.489V56.2067C246.89 55.9311 247.625 55.5177 248.314 54.9205C249.554 53.8182 250.657 51.4756 251.575 47.8928C251.805 47.2957 251.943 46.6526 252.035 45.8717C252.127 45.1368 252.173 44.3559 252.173 43.5751C252.173 42.1052 251.897 40.7732 251.254 39.5789C250.657 38.3846 249.462 37.7875 247.717 37.7875C247.12 37.7875 246.615 37.8334 246.109 38.0172V30.4842C247.625 30.5301 248.957 30.9894 250.151 31.8162C251.392 32.6889 252.402 33.6076 253.229 34.6641C253.413 34.8478 253.551 35.0315 253.642 35.2153C253.78 35.399 253.918 35.5827 254.01 35.8124L255.02 31.9081H266.595L257.409 74.7636H246.109ZM246.109 30.4842V38.0172C245.237 38.2928 244.456 38.844 243.813 39.6248C242.848 40.865 242.067 42.243 241.516 43.7588C241.24 44.4937 241.011 45.2287 240.873 45.9636C240.689 46.6526 240.597 47.2957 240.506 47.8928V47.8009C240.414 48.1225 240.322 48.444 240.276 48.7655C240.23 49.133 240.184 49.4086 240.138 49.6842C240.092 50.0516 240.046 50.3272 240.046 50.6488C240 50.9703 240 51.2918 240 51.6134C240 52.9454 240.276 54.0938 240.827 55.1043C241.378 56.0689 242.389 56.5741 243.859 56.5741C244.639 56.5741 245.42 56.4363 246.109 56.2067V61.489C245.65 61.8105 245.237 62.132 244.777 62.3617C243.859 62.867 242.894 63.2344 241.883 63.4182C240.919 63.6478 239.816 63.7397 238.576 63.7397C234.902 63.7397 232.329 62.867 230.906 61.1674C229.528 59.5139 228.655 57.6306 228.333 55.5636C228.195 54.8287 228.104 54.0938 228.058 53.3588C228.012 52.578 228.012 51.889 228.012 51.2459V51.154C228.058 50.3272 228.15 49.4086 228.241 48.4899C228.379 47.5253 228.517 46.6067 228.747 45.5961C229.619 41.9215 231.319 38.5224 233.891 35.4449C236.463 32.3215 240.414 30.6679 245.834 30.4842C245.926 30.4842 246.017 30.4842 246.109 30.4842ZM246.109 73.4316V74.7636H245.834L246.109 73.4316ZM207.25 47.3875C212.854 47.3875 217.723 45.9636 221.811 43.1157C225.945 40.222 228.012 35.5827 228.012 29.0602C228.012 25.1559 226.68 22.4918 224.016 21.0679C221.351 19.644 218.458 18.8172 215.288 18.5875C214.737 18.5416 214.232 18.5416 213.681 18.4956C213.129 18.4956 212.624 18.4497 212.073 18.4038H207.25V27.5904H208.72C210.787 27.5904 212.303 28.0038 213.175 28.7846C214.048 29.6114 214.461 30.5301 214.461 31.6325C214.461 31.9081 214.461 32.1377 214.416 32.3674C214.37 32.643 214.324 32.8727 214.232 33.1023C213.864 34.4803 212.992 35.7665 211.614 36.9607C210.373 38.0172 208.904 38.5684 207.25 38.6143V47.3875ZM207.25 18.4038V27.5904L202.473 27.5444L200.038 38.6143H206.837C206.974 38.6143 207.112 38.6143 207.25 38.6143V47.3875L198.109 47.3416L194.756 62.7292H183.135V58.1818L191.403 18.4038H207.25ZM183.135 22.8133L184.1 18.4038H183.135V22.8133ZM131.323 24.1913C131.782 25.2937 131.966 26.5798 131.966 28.0497C131.966 28.555 131.966 29.1062 131.874 29.7033C131.828 30.2545 131.736 30.8516 131.552 31.4488H131.323V24.1913ZM183.135 18.4038H172.525L165.313 50.1894L157.596 18.4038H139.774L131.323 59.5139V62.7292H142.163L148.915 29.0143L157.091 62.7292H174.5L183.135 22.8133V18.4038ZM183.135 58.1818V62.7292H182.216L183.135 58.1818ZM85.757 46.8363C85.757 45.2287 85.8948 43.4373 86.1245 41.4622C86.3542 39.487 86.8135 37.5119 87.4106 35.4909C88.8345 30.9894 91.4987 26.8095 95.403 22.9971C99.3073 19.1846 105.233 17.1636 113.271 17.0258C114.19 17.0258 115.2 17.0258 116.257 17.1176C117.313 17.1636 118.415 17.2554 119.518 17.4392C122.595 17.8985 125.443 18.909 128.061 20.4248C129.577 21.3435 130.68 22.5837 131.323 24.1913V31.4488L118.094 31.4028C118.14 31.1732 118.14 30.9894 118.186 30.7598C118.186 30.5301 118.232 30.3464 118.232 30.1626C118.232 28.6928 117.772 27.6363 116.946 26.9473C116.119 26.2583 115.2 25.7531 114.236 25.5234C113.684 25.3856 113.179 25.3397 112.674 25.2937C112.169 25.2478 111.709 25.2019 111.342 25.2019C110.974 25.2019 110.607 25.2478 110.239 25.2937C109.872 25.3856 109.504 25.4315 109.137 25.5234C107.3 26.0746 105.554 27.4985 103.809 29.7033C102.109 31.954 100.777 35.2612 99.7666 39.6708C99.7207 40.0382 99.6288 40.4057 99.5829 40.7732C99.491 41.1406 99.4451 41.5081 99.3991 41.8756C99.3073 42.6564 99.2154 43.3913 99.1236 44.1263C99.0776 44.8612 99.0317 45.5961 99.0317 46.2851C99.0317 48.6277 99.491 50.6028 100.41 52.2105C101.328 53.8641 103.074 54.6449 105.6 54.6449C105.784 54.6449 106.014 54.6449 106.289 54.6449C106.519 54.6449 106.748 54.6449 107.024 54.599C107.391 54.599 107.851 54.5531 108.264 54.4612C108.678 54.3693 109.137 54.1856 109.642 54.0019C110.836 53.4507 111.939 52.6698 112.949 51.5674C113.96 50.511 114.557 49.2708 114.741 47.8928L127.694 47.8009C127.74 47.9387 127.786 48.0306 127.786 48.1225C127.832 48.2603 127.832 48.3521 127.832 48.4899C127.832 49.2248 127.556 50.2354 127.005 51.5215C126.5 52.8536 125.627 54.2315 124.479 55.6555C122.733 57.6765 120.299 59.5598 117.083 61.2134C113.868 62.9129 109.734 63.7397 104.681 63.7397C104.498 63.7397 104.36 63.7397 104.176 63.7397C104.038 63.7397 103.855 63.7397 103.625 63.7397C96.781 63.7397 92.1877 62.3158 89.8451 59.5139C87.5484 56.666 86.2164 53.5426 85.8948 50.1435C85.8489 49.5923 85.803 49.0411 85.803 48.5359C85.757 47.9847 85.757 47.4335 85.757 46.8823V46.8363ZM131.323 59.5139L130.634 62.7292H131.323V59.5139Z" fill="white"/>
</svg>
