<svg width="217" height="110" viewBox="0 0 217 110" fill="none" xmlns="http://www.w3.org/2000/svg">
<path d="M33.6966 102.282L29.7711 109.471H22.8906L41.371 76.8325H48.8249L54.1617 109.471H47.7663L46.6637 102.282H33.6966ZM45.8257 96.8124L44.0173 83.6689H43.9291L36.784 96.8124H45.8257Z" fill="white"/>
<path d="M58.2637 109.471L65.056 76.8325H78.3759C80.7577 76.8325 88.388 76.8325 88.388 85.0361C88.388 87.8148 87.2412 92.5341 83.2717 95.0482C80.2284 96.9888 75.7737 96.9888 71.8483 96.9888H67.5259L64.9237 109.427H58.2637V109.471ZM68.7168 91.5638H70.7897C73.7007 91.5638 76.6999 91.652 78.5965 90.6376C81.2869 89.1821 81.7721 86.6681 81.7721 85.5654C81.7721 82.1693 78.9493 82.3016 75.5091 82.3016H70.6574L68.7168 91.5638Z" fill="white"/>
<path d="M95.5327 76.8325H119.703L118.556 82.3016H101.09L99.5463 89.7555H116.483L115.336 95.2246H98.3996L96.5912 104.046H115.38L114.189 109.515H88.6963L95.5327 76.8325Z" fill="white"/>
<path d="M119.129 109.471L125.965 76.8325H140.476C143.519 76.8325 150.885 76.8325 150.885 85.389C150.885 89.976 148.459 92.7547 146.386 93.9014C144.137 95.1805 142.108 95.401 140.917 95.5774C143.74 98.0915 146.254 104.09 148.195 108.986C148.195 109.074 148.327 109.383 148.327 109.427H141.138C141.138 109.338 138.094 100.826 136.198 98.1356C134.742 96.0185 133.419 96.0185 131.434 96.0185H128.7L125.877 109.427H119.129V109.471ZM129.714 90.9463H133.287C136.595 90.9463 139.241 90.9463 141.094 90.0201C143.696 88.6969 144.225 86.5357 144.225 85.4772C144.225 82.3016 141.182 82.3016 138.932 82.3016H131.523L129.714 90.9463Z" fill="white"/>
<path d="M184.627 92.049L181.716 106.031C179.511 107.442 174.262 110 167.778 110C162.53 110 159.795 108.677 157.811 106.648C155.032 103.781 154.062 100.076 154.062 96.4155C154.062 87.8589 159.442 76.2591 172.277 76.2591C174.571 76.2591 180.172 76.7443 183.392 81.0225C185.112 83.316 185.685 85.6977 185.862 86.6681L179.599 87.3738C178.364 83.2719 175.585 81.9046 172.365 81.9046C163.721 81.9046 160.589 89.7996 160.589 96.3714C160.589 103.869 165.132 104.443 167.911 104.443C171.88 104.443 175.409 102.811 176.247 102.37L177.261 97.5181H168.925L170.072 92.049H184.627Z" fill="white"/>
<path d="M194.771 98.5766C194.859 101.399 194.991 104.399 201.254 104.399C203.548 104.399 207.473 103.825 207.473 100.385C207.473 98.0474 205.532 97.2535 201.96 95.6657C196.314 93.1957 192.345 91.4756 192.345 85.8301C192.345 81.9046 194.815 76.2591 203.989 76.2591C210.252 76.2591 215.853 78.9495 216.338 86.0947L209.899 86.4034C209.546 82.6103 206.988 81.5518 203.945 81.5518C202.798 81.5518 198.784 81.5518 198.784 84.992C198.784 87.3297 200.99 88.2559 204.694 89.8878C210.296 92.3136 214.133 93.9896 214.133 99.547C214.133 104.355 210.428 110 201.21 110C196.579 110 190.669 108.545 189.037 103.428C188.464 101.576 188.331 99.7234 188.419 98.8854L194.771 98.5766Z" fill="white"/>
<path d="M6.83641 76.8325H29.6832L28.5365 82.3016H12.3937L10.7618 90.1524H26.5517L25.405 95.6215H9.61507L6.70408 109.471H0L6.83641 76.8325Z" fill="white"/>
<path d="M114.653 2.05437L79.4492 60.0837L44.5549 2.00261L114.653 2.05437Z" stroke="white" stroke-width="4"/>
<path fill-rule="evenodd" clip-rule="evenodd" d="M41.0186 0L79.3906 63.9535V21.6965L41.0186 0Z" fill="white"/>
<path d="M89.5706 61.4584L124.761 3.85018L159.643 61.5098L89.5706 61.4584Z" stroke="white" stroke-width="4"/>
<path fill-rule="evenodd" clip-rule="evenodd" d="M163.191 63.9535L124.378 0V42.257L163.191 63.9535Z" fill="white"/>
</svg>
