<svg width="271" height="150" viewBox="0 0 271 150" fill="none" xmlns="http://www.w3.org/2000/svg">
<g clip-path="url(#clip0)">
<path fill-rule="evenodd" clip-rule="evenodd" d="M268.216 3.33671C268.114 2.93226 267.76 2.67948 267.355 2.7806L176.532 21.7897C175.975 21.8403 175.418 22.1941 175.216 22.8008C175.013 23.4075 175.165 24.0647 175.621 24.4692C175.773 24.6208 175.975 24.7219 176.228 24.8231L176.482 24.9242L214.907 77.6542C214.957 77.8059 215.058 77.9575 215.16 78.1092C215.16 78.1598 215.21 78.1598 215.21 78.1598C215.767 78.8675 216.729 79.2214 217.691 79.0192C218.552 78.817 219.159 78.2103 219.463 77.452L267.912 4.09506C268.165 3.94339 268.266 3.64005 268.216 3.33671ZM209.034 34.9343L181.747 23.7614L262.849 5.3084L209.034 34.9343ZM265.127 5.61174L218.299 70.728L210.502 36.906L265.127 5.61174ZM208.376 36.6026C208.376 36.6532 208.426 36.6532 208.426 36.7037C208.528 36.8554 208.68 37.0071 208.831 37.1082L213.337 67.8463L180.481 26.3397L208.376 36.6026Z" fill="white"/>
<path fill-rule="evenodd" clip-rule="evenodd" d="M271 3.48837C271 1.56724 269.431 0 267.507 0C265.583 0 264.014 1.56724 264.014 3.48837C264.014 5.4095 265.583 6.97674 267.507 6.97674C269.431 6.97674 271 5.4095 271 3.48837Z" fill="white"/>
<path fill-rule="evenodd" clip-rule="evenodd" d="M214.654 36.0971C214.654 33.266 212.376 30.9404 209.49 30.9404C206.655 30.9404 204.326 33.2154 204.326 36.0971C204.326 38.9282 206.604 41.2538 209.49 41.2538C212.325 41.2033 214.654 38.9282 214.654 36.0971Z" fill="white"/>
<path fill-rule="evenodd" clip-rule="evenodd" d="M182.658 23.3569C182.658 20.0708 179.974 17.3913 176.684 17.3913C173.393 17.3913 170.71 20.0708 170.71 23.3569C170.71 26.6431 173.393 29.3225 176.684 29.3225C179.974 29.3225 182.658 26.6431 182.658 23.3569Z" fill="white"/>
<path fill-rule="evenodd" clip-rule="evenodd" d="M224.728 76.542C224.728 72.3458 221.336 68.9585 217.134 68.9585C212.932 68.9585 209.54 72.3458 209.54 76.542C209.54 80.7381 212.932 84.1254 217.134 84.1254C221.336 84.1759 224.728 80.7381 224.728 76.542Z" fill="white"/>
<path fill-rule="evenodd" clip-rule="evenodd" d="M0 122.194V113.195H2.22754V122.194H0ZM10.8846 122.194L7.69512 117.644C7.13824 116.835 6.78386 116.229 6.78386 116.229H6.73323C6.73323 116.229 6.78386 116.886 6.78386 117.492V122.194H4.80945V113.195H7.03699L9.97329 117.391C10.5808 118.251 10.9858 118.959 10.9858 118.959H11.0364C11.0364 118.959 10.9858 118.2 10.9858 117.492V113.195H12.9602V122.194H10.8846ZM19.3897 122.346C16.3015 122.346 14.6309 120.121 14.6309 117.695C14.6309 115.268 16.2509 112.993 19.3391 112.993C22.4779 112.993 24.0473 115.217 24.0473 117.594C24.0473 120.071 22.5285 122.346 19.3897 122.346ZM19.3897 114.762C17.6684 114.762 16.909 116.077 16.909 117.644C16.909 119.211 17.6178 120.627 19.3391 120.627C21.0603 120.627 21.7691 119.262 21.7691 117.695C21.7691 116.127 21.111 114.762 19.3897 114.762ZM30.0211 122.194H27.9455L24.4523 113.195H26.8317L28.6036 118.301C28.8567 119.009 29.0592 119.767 29.0592 119.767H29.1098C29.1098 119.767 29.3123 118.959 29.5655 118.301L31.2361 113.195H33.413L30.0211 122.194ZM35.0331 122.194L35.5393 120.677H38.9819L39.5388 122.194H41.9182L38.3744 113.195H36.2481L32.8055 122.194H35.0331ZM37.7162 117.088L38.3744 118.959H36.1468L36.805 117.088C37.0581 116.33 37.2606 115.521 37.2606 115.521H37.3112C37.2606 115.521 37.4631 116.33 37.7162 117.088ZM42.3232 117.644C42.3232 115.217 43.9432 112.993 47.082 112.993C48.2464 112.993 49.107 113.246 49.8664 113.701L48.9045 115.268C48.3983 114.965 47.892 114.762 47.082 114.762C45.5126 114.762 44.7026 115.976 44.7026 117.543C44.7026 119.161 45.5126 120.475 47.1326 120.475C48.0945 120.475 48.6514 120.121 49.107 119.818L50.0183 121.335C49.5627 121.739 48.4489 122.295 47.1326 122.295L46.9301 122.851C47.487 122.952 47.892 123.357 47.892 124.014C47.892 124.773 47.1833 125.329 46.1201 125.329C45.5126 125.329 45.1076 125.228 44.9051 125.126L45.1582 124.267C45.3101 124.318 45.5126 124.419 45.867 124.419C46.272 124.419 46.5251 124.267 46.5251 123.964C46.5251 123.509 46.0189 123.458 45.5632 123.458L46.0189 122.245C43.4876 121.79 42.3232 119.818 42.3232 117.644ZM52.904 122.194H50.6764L54.119 113.195H56.2453L59.7891 122.194H57.4097L56.8528 120.677H53.4102L52.904 122.194ZM56.0428 112.336C55.1821 112.336 54.9796 111.881 54.3721 111.881C54.0684 111.881 53.7646 112.133 53.6127 112.285L52.7015 111.476C52.9546 110.971 53.5621 110.364 54.3215 110.364C55.1821 110.364 55.3846 110.819 55.9922 110.819C56.3465 110.819 56.6503 110.566 56.7515 110.415L57.6628 111.223C57.4097 111.729 56.8022 112.336 56.0428 112.336ZM55.5872 117.088C55.334 116.33 55.1315 115.521 55.1315 115.521H55.0809C55.0809 115.521 54.8784 116.33 54.6253 117.088L53.9671 118.959H56.1947L55.5872 117.088ZM65.0035 122.346C61.9154 122.346 60.2447 120.121 60.2447 117.695C60.2447 115.268 61.8648 112.993 64.9529 112.993C68.0917 112.993 69.6611 115.217 69.6611 117.594C69.6611 120.071 68.0917 122.346 65.0035 122.346ZM65.0035 114.762C63.2823 114.762 62.5229 116.077 62.5229 117.644C62.5229 119.211 63.2316 120.627 64.9529 120.627C66.6742 120.627 67.383 119.262 67.383 117.695C67.3323 116.127 66.6742 114.762 65.0035 114.762ZM74.42 122.194V113.195H79.7863V114.965H76.5462V116.734H79.3813V118.402H76.5462V120.425H79.8875V122.194H74.42ZM87.8358 119.11H87.0764V122.144H84.8995V113.145H88.0889C90.114 113.145 91.6327 114.055 91.6327 116.077C91.5821 118.099 90.114 119.11 87.8358 119.11ZM87.8864 114.813H87.0764V117.492H87.8864C88.9496 117.492 89.4558 117.037 89.4558 116.127C89.4052 115.217 88.9496 114.813 87.8864 114.813ZM93.0503 122.194V113.195H98.4672V114.965H95.2272V116.734H98.0622V118.402H95.2272V120.425H98.5685V122.194H93.0503ZM102.973 122.346C101.505 122.346 100.543 121.79 100.138 121.486L101.049 119.97C101.252 120.121 101.96 120.627 102.922 120.627C103.783 120.627 104.239 120.273 104.239 119.717C104.239 119.009 103.327 118.857 102.264 118.301C101.15 117.745 100.391 117.037 100.391 115.571C100.391 114.004 101.707 112.993 103.378 112.993C104.897 112.993 105.707 113.448 106.112 113.751L105.251 115.268C104.947 115.066 104.239 114.712 103.53 114.712C102.872 114.712 102.467 114.965 102.467 115.521C102.467 116.178 103.175 116.33 104.137 116.785C105.352 117.29 106.365 117.947 106.365 119.565C106.264 121.284 105.049 122.346 102.973 122.346ZM115.123 123.003C115.629 123.003 116.034 122.801 116.186 122.649L116.895 124.065C116.642 124.267 115.984 124.621 115.022 124.621C113.604 124.621 112.44 124.115 111.022 122.245C108.643 121.739 107.428 119.818 107.428 117.695C107.428 115.268 109.048 112.993 112.136 112.993C115.275 112.993 116.844 115.217 116.844 117.594C116.844 119.666 115.731 121.587 113.554 122.144C114.009 122.801 114.414 123.003 115.123 123.003ZM112.187 114.762C110.466 114.762 109.706 116.077 109.706 117.644C109.706 119.211 110.415 120.627 112.136 120.627C113.857 120.627 114.566 119.262 114.566 117.695C114.516 116.127 113.857 114.762 112.187 114.762ZM122.464 122.346C119.831 122.346 118.515 121.082 118.515 118.655V113.195H120.692V118.504C120.692 119.919 121.148 120.576 122.514 120.576C123.78 120.576 124.236 119.818 124.236 118.605V113.195H126.261V118.453C126.261 120.981 124.945 122.346 122.464 122.346ZM128.792 122.194V113.195H131.02V122.194H128.792ZM135.525 122.346C134.057 122.346 133.095 121.79 132.69 121.486L133.602 119.97C133.804 120.121 134.513 120.627 135.475 120.627C136.335 120.627 136.791 120.273 136.791 119.717C136.791 119.009 135.88 118.857 134.817 118.301C133.703 117.745 132.943 117.037 132.943 115.571C132.943 114.004 134.26 112.993 135.93 112.993C137.449 112.993 138.259 113.448 138.664 113.751L137.803 115.268C137.5 115.066 136.791 114.712 136.082 114.712C135.424 114.712 135.019 114.965 135.019 115.521C135.019 116.178 135.728 116.33 136.69 116.785C137.905 117.29 138.917 117.947 138.917 119.565C138.867 121.284 137.601 122.346 135.525 122.346ZM141.702 122.194H139.474L142.917 113.195H144.992L148.536 122.194H146.157L145.6 120.677H142.259L141.702 122.194ZM144.435 117.088C144.182 116.33 143.98 115.521 143.98 115.521H143.929C143.929 115.521 143.727 116.33 143.474 117.088L142.815 118.959H145.043L144.435 117.088Z" fill="white"/>
<path fill-rule="evenodd" clip-rule="evenodd" d="M49.2589 53.7412C45.057 53.7412 41.6651 50.3539 41.6651 46.1578C41.6651 41.9616 45.057 38.5743 49.2589 38.5743C53.4609 38.5743 56.8528 41.9616 56.8528 46.1578C56.8528 50.3539 53.4609 53.7412 49.2589 53.7412ZM34.1218 57.5329V46.1578H0V103.741H14.0234V80.8898H31.793V70.273H14.0234V57.5834H34.1218V57.5329ZM55.9415 103.691V61.3246H42.5763V103.691H55.9415ZM103.378 103.691V74.2164C103.378 66.3296 99.9354 60.3135 90.5696 60.3135C83.6339 60.3135 79.5838 63.8524 77.255 66.5319V61.3246H64.3454V103.691H77.5081V75.7836C78.3688 74.6714 81.3051 71.183 85.102 71.183C88.7977 71.183 90.2152 73.003 90.2152 76.8959V103.691H103.378ZM123.375 86.0971H149.599C151.067 69.7675 144.587 60.364 130.817 60.364C118.869 60.364 109.251 68.7563 109.251 82.4065C109.251 96.1577 117.654 104.803 132.083 104.803C141.094 104.803 145.347 102.376 148.283 100.758L144.233 92.5683C142.056 93.6299 139.12 95.2477 133.399 95.2477C127.172 95.1466 124.084 91.7594 123.375 86.0971ZM123.122 77.452C123.881 72.2447 126.311 69.5652 130.665 69.5652C135.272 69.5652 136.993 73.003 137.095 77.452H123.122ZM197.896 82.5076C197.896 68.2508 191.416 60.3135 180.684 60.3135C174.963 60.3135 171.419 62.8918 169.09 65.7735V61.3751H156.181V122.194H169.343V102.022C170.812 103.134 173.95 104.803 178.861 104.803C189.948 104.752 197.896 95.905 197.896 82.5076ZM183.974 82.457C183.974 90.3943 181.038 94.7422 175.823 94.7422C172.634 94.7422 170.71 93.4277 169.343 92.2144V74.5197C170.204 73.4075 172.634 70.728 176.431 70.728C181.392 70.6775 183.974 74.9242 183.974 82.457Z" fill="white"/>
<path fill-rule="evenodd" clip-rule="evenodd" d="M127.729 143.074H126.008V144.287C126.008 144.59 126.058 144.793 126.21 144.894C126.362 144.995 126.615 145.045 126.919 145.045H127.678C128.235 145.045 128.539 144.742 128.539 144.085C128.539 143.731 128.488 143.478 128.337 143.327C128.235 143.175 128.033 143.074 127.729 143.074Z" fill="white"/>
<path fill-rule="evenodd" clip-rule="evenodd" d="M128.438 140.9C128.438 140.344 128.185 140.091 127.628 140.091H126.008V141.759H127.628C128.185 141.709 128.438 141.456 128.438 140.9Z" fill="white"/>
<path fill-rule="evenodd" clip-rule="evenodd" d="M104.795 140.091H103.378V142.619H104.795C105.15 142.619 105.454 142.518 105.605 142.315C105.808 142.113 105.909 141.81 105.909 141.355C105.909 140.495 105.504 140.091 104.795 140.091Z" fill="white"/>
<path fill-rule="evenodd" clip-rule="evenodd" d="M166.205 143.832H168.078L167.167 140.799L166.205 143.832Z" fill="white"/>
<path fill-rule="evenodd" clip-rule="evenodd" d="M42.8296 140.091H41.4121V142.619H42.8296C43.184 142.619 43.4878 142.518 43.6396 142.315C43.8421 142.113 43.9434 141.81 43.9434 141.355C43.8928 140.495 43.5384 140.091 42.8296 140.091Z" fill="white"/>
<path fill-rule="evenodd" clip-rule="evenodd" d="M186.556 140.546C186.303 140.243 185.898 140.091 185.442 140.091H184.075V144.338C184.075 144.641 184.176 144.843 184.379 144.944C184.581 145.046 184.936 145.096 185.442 145.096C185.948 145.096 186.303 144.944 186.556 144.641C186.708 144.489 186.758 144.237 186.809 143.933C186.86 143.63 186.86 143.175 186.86 142.568C186.86 141.962 186.86 141.507 186.809 141.203C186.809 140.95 186.708 140.698 186.556 140.546Z" fill="white"/>
<path fill-rule="evenodd" clip-rule="evenodd" d="M53.9165 140.091H53.1572C52.7015 140.091 52.499 140.293 52.499 140.748V142.315H53.9165C54.2203 142.315 54.4734 142.214 54.6759 141.962C54.8784 141.759 54.9797 141.456 54.9797 141.153C54.9797 140.849 54.8784 140.546 54.6759 140.344C54.4734 140.192 54.2203 140.091 53.9165 140.091Z" fill="white"/>
<path fill-rule="evenodd" clip-rule="evenodd" d="M85.5068 143.832H87.38L86.4687 140.799L85.5068 143.832Z" fill="white"/>
<path fill-rule="evenodd" clip-rule="evenodd" d="M0.607422 134.125V150H270.139V134.125H0.607422ZM115.427 137.209L115.832 136.047H117.3L116.49 137.209C116.237 137.563 115.984 137.715 115.68 137.715C115.477 137.715 115.376 137.614 115.376 137.412C115.376 137.412 115.376 137.31 115.427 137.209ZM21.0602 140.091H17.5164V141.911H19.9971L19.8959 143.225H17.5164V144.287C17.5164 144.59 17.5671 144.793 17.7189 144.894C17.8708 144.995 18.124 145.045 18.4783 145.045H21.1109V146.36H18.3771C17.5164 146.36 16.9089 146.208 16.5546 145.905C16.2002 145.602 16.0483 145.096 16.0483 144.338V138.675H21.1109V140.091H21.0602ZM34.0205 146.411H32.5017V141.81L31.1348 144.742C30.9323 145.147 30.6792 145.298 30.3754 145.298C30.0716 145.298 29.8185 145.096 29.616 144.692L28.1985 141.81V146.411H26.6797V138.726H28.1479L30.3248 143.175L32.5017 138.726H33.9698V146.411H34.0205ZM44.7531 143.276C44.2975 143.731 43.69 143.933 42.88 143.933H41.4118V146.411H39.8931V138.726H42.88C43.69 138.726 44.2975 138.928 44.7531 139.383C45.2088 139.838 45.4113 140.495 45.4113 141.304C45.4113 142.214 45.2088 142.872 44.7531 143.276ZM55.0808 146.411L53.562 143.579H52.4989V146.411H50.9801V140.394C50.9801 139.838 51.132 139.383 51.3851 139.13C51.6382 138.878 52.0939 138.726 52.7014 138.726H53.967C54.7264 138.726 55.3339 138.979 55.7896 139.434C56.2452 139.889 56.4477 140.495 56.4477 141.203C56.4477 141.709 56.2958 142.164 56.0427 142.568C55.7896 142.922 55.4352 143.225 55.0302 143.327L56.7514 146.411H55.0808ZM67.4335 140.091H63.8897V141.911H66.3704L66.2691 143.225H63.8897V144.287C63.8897 144.59 63.9403 144.793 64.0922 144.894C64.2441 144.995 64.4972 145.045 64.8516 145.045H67.4841V146.36H64.7503C63.8897 146.36 63.2822 146.208 62.9278 145.905C62.5734 145.602 62.4215 145.096 62.4215 144.338V138.675H67.4841V140.091H67.4335ZM77.5587 145.854C77.0524 146.259 76.3436 146.461 75.5336 146.461C74.8755 146.461 74.268 146.259 73.6605 145.905C73.3567 145.703 73.1036 145.45 72.9011 145.096C72.6986 144.742 72.5973 144.388 72.5973 143.933L73.9642 143.883C73.9642 144.287 74.1161 144.59 74.4705 144.793C74.8249 144.995 75.1792 145.096 75.5843 145.096C76.4955 145.096 76.9511 144.793 76.9511 144.135C76.9511 143.63 76.6474 143.327 76.0399 143.225L74.7742 143.074C74.1667 142.973 73.6605 142.77 73.3061 142.417C72.9517 142.063 72.7492 141.557 72.7492 140.9C72.7492 140.243 73.0023 139.687 73.5592 139.282C74.0655 138.827 74.7236 138.625 75.5336 138.625C76.3436 138.625 77.0018 138.827 77.4574 139.232C77.9637 139.636 78.1662 140.142 78.1662 140.799L76.8499 140.849C76.7486 140.243 76.293 139.889 75.5843 139.889C75.1286 139.889 74.8249 139.99 74.5717 140.192C74.3186 140.394 74.2174 140.597 74.2174 140.849C74.2174 141.102 74.3186 141.304 74.4705 141.456C74.673 141.608 74.8755 141.709 75.1286 141.709L76.3436 141.86C77.7105 142.063 78.4193 142.77 78.4193 144.085C78.3687 144.894 78.1155 145.45 77.5587 145.854ZM88.1395 146.411L87.6838 145.096H85.1019L84.6969 146.411H83.1275L85.6082 139.383C85.7094 139.13 85.8613 138.979 85.9625 138.878C86.1144 138.777 86.2663 138.726 86.4688 138.726C86.6713 138.726 86.8232 138.777 86.9244 138.878C87.0257 138.979 87.1269 139.13 87.2282 139.383L89.7089 146.411H88.1395ZM106.719 143.276C106.263 143.731 105.656 143.933 104.846 143.933H103.378V146.411H101.859V138.726H104.846C105.656 138.726 106.263 138.928 106.719 139.383C107.175 139.838 107.377 140.495 107.377 141.304C107.377 142.214 107.175 142.872 106.719 143.276ZM118.616 143.782C118.616 144.59 118.312 145.248 117.756 145.753C117.199 146.259 116.49 146.461 115.68 146.461C114.87 146.461 114.161 146.208 113.604 145.753C113.047 145.248 112.744 144.59 112.744 143.782V138.726H114.262V143.731C114.262 144.186 114.414 144.54 114.667 144.793C114.921 145.045 115.275 145.147 115.731 145.147C116.186 145.147 116.49 145.045 116.794 144.793C117.047 144.54 117.199 144.186 117.199 143.731V138.726H118.667V143.782H118.616ZM129.45 145.854C129.045 146.259 128.539 146.411 127.83 146.411H126.818C125.957 146.411 125.349 146.259 124.995 145.956C124.641 145.652 124.438 145.147 124.438 144.439V138.726H127.678C128.387 138.726 128.944 138.928 129.349 139.282C129.703 139.636 129.906 140.142 129.906 140.849C129.906 141.254 129.805 141.557 129.602 141.86C129.399 142.113 129.197 142.315 128.944 142.417C129.653 142.77 130.007 143.327 130.007 144.186C130.058 144.894 129.855 145.45 129.45 145.854ZM140.638 146.411H138.36C137.5 146.411 136.892 146.259 136.487 145.905C136.082 145.551 135.93 145.045 135.93 144.287V138.777H137.449V144.287C137.449 144.59 137.5 144.793 137.651 144.894C137.803 144.995 138.056 145.045 138.411 145.045H140.689V146.411H140.638ZM147.625 146.411H146.106V138.726H147.625V146.411ZM158.256 145.703C157.75 146.208 157.092 146.512 156.181 146.512C154.206 146.512 153.244 145.349 153.244 143.074V142.417C153.244 140.597 153.751 139.484 154.763 138.979C155.168 138.777 155.624 138.675 156.181 138.675C156.991 138.675 157.649 138.878 158.206 139.333C158.712 139.788 158.965 140.445 158.965 141.254H157.547C157.446 140.849 157.345 140.495 157.142 140.293C156.94 140.091 156.636 139.99 156.181 139.99C155.674 139.99 155.32 140.142 155.067 140.445C154.915 140.647 154.814 141.052 154.763 141.608C154.763 141.759 154.763 142.012 154.763 142.315V142.973C154.763 143.782 154.864 144.338 155.117 144.641C155.371 144.944 155.725 145.096 156.231 145.096C156.737 145.096 157.092 144.944 157.244 144.692C157.446 144.439 157.547 143.984 157.598 143.428H158.965C159.016 144.388 158.762 145.147 158.256 145.703ZM168.837 146.411L168.381 145.096H165.799L165.394 146.411H163.825L166.306 139.383C166.407 139.13 166.508 138.979 166.66 138.878C166.812 138.777 166.964 138.726 167.166 138.726C167.369 138.726 167.521 138.777 167.622 138.878C167.723 138.979 167.824 139.13 167.926 139.383L170.406 146.411H168.837ZM188.227 144.692C188.125 145.045 187.923 145.399 187.619 145.652C187.113 146.158 186.404 146.36 185.493 146.36C184.379 146.36 183.62 146.208 183.215 145.905C182.81 145.602 182.607 145.096 182.607 144.338V138.675H185.594C186.455 138.675 187.113 138.928 187.619 139.383C188.024 139.788 188.227 140.243 188.328 140.849C188.379 141.254 188.379 141.81 188.379 142.467V143.276C188.379 143.883 188.328 144.338 188.227 144.692ZM199.668 142.821C199.668 144.085 199.415 145.045 198.959 145.602C198.453 146.208 197.694 146.461 196.631 146.461C195.567 146.461 194.808 146.158 194.302 145.602C193.846 145.045 193.593 144.085 193.593 142.77V142.214C193.593 141.001 193.846 140.142 194.302 139.535C194.808 138.928 195.567 138.675 196.631 138.675C197.694 138.675 198.453 138.979 198.959 139.535C199.466 140.142 199.719 141.001 199.719 142.214V142.821H199.668ZM219.26 146.411H217.742V141.81L216.375 144.742C216.172 145.147 215.919 145.298 215.615 145.298C215.311 145.298 215.058 145.096 214.856 144.692L213.438 141.81V146.411H211.92V138.726H213.388L215.565 143.175L217.742 138.726H219.21V146.411H219.26ZM229.689 145.703C229.183 146.208 228.525 146.512 227.614 146.512C225.639 146.512 224.677 145.349 224.677 143.074V142.417C224.677 140.597 225.184 139.484 226.196 138.979C226.601 138.777 227.057 138.675 227.614 138.675C228.424 138.675 229.082 138.878 229.588 139.333C230.094 139.788 230.347 140.445 230.347 141.254H228.93C228.829 140.849 228.727 140.495 228.525 140.293C228.322 140.091 228.019 139.99 227.563 139.99C227.057 139.99 226.702 140.142 226.449 140.445C226.297 140.647 226.196 141.052 226.145 141.608C226.145 141.759 226.145 142.012 226.145 142.315V142.973C226.145 143.782 226.247 144.338 226.5 144.641C226.753 144.944 227.107 145.096 227.614 145.096C228.12 145.096 228.474 144.944 228.626 144.692C228.829 144.439 228.93 143.984 228.98 143.428H230.347C230.398 144.388 230.195 145.147 229.689 145.703ZM240.979 140.091H238.954V146.411H237.435V140.091H235.41V138.777H240.979V140.091ZM247.965 146.411H246.446V138.726H247.965V146.411Z" fill="white"/>
<path fill-rule="evenodd" clip-rule="evenodd" d="M196.58 139.99C195.922 139.99 195.466 140.243 195.264 140.698C195.112 141.102 195.011 141.658 195.011 142.366V142.77C195.011 143.68 195.163 144.338 195.416 144.641C195.517 144.793 195.669 144.894 195.871 144.995C196.074 145.096 196.327 145.147 196.58 145.147C196.833 145.147 197.086 145.096 197.289 144.995C197.491 144.894 197.643 144.793 197.745 144.641C197.846 144.489 197.947 144.338 197.998 144.085C198.099 143.731 198.15 143.276 198.15 142.72V142.315C198.15 141.608 198.048 141.102 197.896 140.647C197.694 140.243 197.238 139.99 196.58 139.99Z" fill="white"/>
</g>
<defs>
<clipPath id="clip0">
<rect width="271" height="150" fill="white"/>
</clipPath>
</defs>
</svg>
