<svg width="133" height="140" viewBox="0 0 133 140" fill="none" xmlns="http://www.w3.org/2000/svg">
<path fill-rule="evenodd" clip-rule="evenodd" d="M52.9668 132.049H57.7913V134.639C57.1659 135.086 56.3618 135.533 55.5578 135.89C54.6643 136.248 53.7709 136.426 52.9668 136.426C51.18 136.426 49.7505 135.801 48.6784 134.55C47.6063 133.299 47.0702 131.512 47.0702 129.011C47.0702 126.777 47.6063 124.99 48.6784 123.829C49.7505 122.668 51.18 122.131 53.0562 122.131C54.2176 122.131 55.2897 122.399 56.0938 123.025C56.8979 123.65 57.434 124.454 57.702 125.437L61.8117 124.633C61.365 122.757 60.4716 121.238 59.0421 120.166C57.6126 119.094 55.5578 118.558 53.0562 118.558C51.0906 118.558 49.3931 118.915 48.1423 119.63C46.4448 120.523 45.1047 121.774 44.2112 123.472C43.3178 125.169 42.8711 127.045 42.8711 129.19C42.8711 131.155 43.3178 133.031 44.1219 134.729C44.926 136.426 46.1768 137.677 47.7849 138.66C49.3931 139.553 51.2693 140 53.4135 140C55.111 140 56.8086 139.643 58.4167 139.017C60.1142 138.392 61.365 137.588 62.2585 136.784V128.564H52.9668V132.049Z" fill="white"/>
<path fill-rule="evenodd" clip-rule="evenodd" d="M11.2442 132.049H16.0687V134.639C15.4433 135.086 14.6392 135.533 13.8351 135.89C12.9417 136.248 12.0482 136.426 11.2442 136.426C9.45731 136.426 8.02782 135.801 6.95571 134.55C5.8836 133.299 5.34754 131.512 5.34754 129.011C5.34754 126.777 5.8836 124.99 6.95571 123.829C8.02782 122.668 9.45731 122.131 11.3335 122.131C12.495 122.131 13.5671 122.399 14.3712 123.025C15.1752 123.65 15.7113 124.454 15.9793 125.437L20.0891 124.633C19.6424 122.757 18.7489 121.238 17.3195 120.166C15.89 119.094 13.8351 118.558 11.3335 118.558C9.36796 118.558 7.67045 118.915 6.41966 119.63C4.72215 120.523 3.382 121.774 2.48858 123.472C1.59515 125.169 1.14844 127.045 1.14844 129.19C1.14844 131.155 1.59515 133.031 2.39924 134.729C3.20332 136.426 4.45412 137.677 6.06229 138.66C7.67045 139.553 9.54665 140 11.6909 140C13.3884 140 15.0859 139.643 16.6941 139.017C18.3916 138.392 19.6424 137.588 20.5358 136.784V128.564H11.2442V132.049Z" fill="white"/>
<path fill-rule="evenodd" clip-rule="evenodd" d="M122.208 121.238C121.314 120.345 120.332 119.719 119.081 119.362C118.187 119.094 116.847 119.004 115.15 119.004H107.556V139.643H115.418C116.937 139.643 118.187 139.464 119.081 139.196C120.332 138.839 121.314 138.213 122.029 137.588C123.012 136.694 123.727 135.444 124.263 133.925C124.709 132.674 124.888 131.244 124.888 129.547C124.888 127.581 124.709 125.973 124.173 124.633C123.727 123.293 123.101 122.131 122.208 121.238ZM120.153 133.121C119.885 134.014 119.528 134.729 119.081 135.086C118.634 135.533 118.098 135.801 117.383 135.98C116.847 136.069 116.043 136.158 114.882 136.158H111.755V122.489H113.631C115.328 122.489 116.49 122.578 117.026 122.668C117.83 122.846 118.455 123.114 118.992 123.65C119.528 124.097 119.885 124.812 120.153 125.616C120.421 126.509 120.6 127.671 120.6 129.279C120.6 130.887 120.421 132.138 120.153 133.121Z" fill="white"/>
<path fill-rule="evenodd" clip-rule="evenodd" d="M28.2191 130.53H38.6722V127.045H28.2191V122.489H39.387V118.915H24.1094V139.643H39.8337V136.158H28.2191V130.53Z" fill="white"/>
<path d="M132.481 118.915H128.282V139.553H132.481V118.915Z" fill="white"/>
<path fill-rule="evenodd" clip-rule="evenodd" d="M79.5024 132.227C78.877 131.602 78.1623 130.976 77.2689 130.53C79.0557 130.262 80.4852 129.636 81.3786 128.653C82.2721 127.671 82.7188 126.331 82.7188 124.812C82.7188 123.561 82.4508 122.489 81.8254 121.506C81.2 120.523 80.3959 119.898 79.4131 119.541C78.4303 119.183 76.8222 119.004 74.5886 119.004H65.833V139.643H70.0321V130.976H70.8362C71.819 130.976 72.5337 131.066 72.9804 131.244C73.4271 131.423 73.8739 131.691 74.2312 132.138C74.5886 132.585 75.3927 133.567 76.4648 135.175L79.5024 139.643H84.5056L82.004 135.622C80.9319 134.014 80.1278 132.853 79.5024 132.227ZM73.0698 127.671H69.9428V122.399H73.2485C74.946 122.399 75.9287 122.399 76.2861 122.489C77.0008 122.578 77.4476 122.846 77.8943 123.293C78.2516 123.74 78.4303 124.276 78.4303 124.99C78.4303 125.616 78.2516 126.152 77.9836 126.509C77.7156 126.956 77.2689 127.224 76.8222 127.403C76.3754 127.581 75.1247 127.671 73.0698 127.671Z" fill="white"/>
<path fill-rule="evenodd" clip-rule="evenodd" d="M92.6356 118.915L84.5947 139.553H89.0619L90.7594 134.818H99.0682L100.855 139.553H105.412L97.1027 118.915H92.6356ZM92.0102 131.423L94.7798 123.74L97.6388 131.423H92.0102Z" fill="white"/>
<path fill-rule="evenodd" clip-rule="evenodd" d="M82.5397 17.9579C93.8862 19.566 100.944 25.016 105.679 30.1978C111.844 36.8985 116.311 46.2795 115.775 55.5712C114.792 72.993 98.8894 83.2674 98.8894 83.2674L110.236 94.7926C120.421 87.8239 129.266 74.8692 131.499 60.9317C132.214 56.1072 131.946 50.7466 131.41 46.6369C126.764 26.8028 114.971 11.9719 98.0853 5.27122C91.6526 2.68028 84.4159 1.51883 76.9111 0.893427C73.5161 0.536056 69.853 0.268028 66.2793 0V6.16465V53.8736H82.629V17.9579H82.5397Z" fill="white"/>
<path fill-rule="evenodd" clip-rule="evenodd" d="M65.6539 54.5884H49.3935V90.9509C38.047 89.3427 30.9889 83.8928 26.2537 78.7109C20.0891 72.0102 15.622 62.6292 16.158 53.3376C17.1408 35.9158 33.0438 25.6413 33.0438 25.6413L21.6079 14.1161C11.5122 20.9955 2.57793 34.0396 0.433705 47.977C-0.281037 52.8015 -0.013009 58.1621 0.523047 62.2718C5.16887 82.1059 16.9621 96.8475 33.8479 103.638C40.2805 106.228 47.5173 107.39 55.0221 108.015C58.4171 108.283 62.0802 108.551 65.6539 108.819V102.208V98.277V93.1844V54.5884Z" fill="white"/>
</svg>
