<svg width="238" height="140" viewBox="0 0 238 140" fill="none" xmlns="http://www.w3.org/2000/svg">
<path d="M49.383 112.716C49.383 113.481 49.043 113.864 48.3206 113.864H41.8183V90.617C41.8183 84.7097 39.6084 81.7773 35.1886 81.7773C30.7688 81.7773 28.5588 84.9647 28.5588 91.3394V113.864H20.9517V91.3394C20.9517 88.5345 20.4417 86.2821 19.3792 84.5822C18.1893 82.7123 16.4893 81.8198 14.2369 81.8198C9.81711 81.8198 7.60719 84.7522 7.60719 90.6595V113.906H0V90.2345C0 85.8146 1.23245 82.1173 3.69735 79.1424C6.16225 76.1675 9.47712 74.7226 13.7269 74.7226C18.5718 74.7226 22.2266 76.6775 24.649 80.5874C27.1564 76.6775 30.8963 74.7226 35.7836 74.7226C39.9909 74.7226 43.3058 76.2525 45.8132 79.3124C48.1931 82.1598 49.383 85.8146 49.383 90.2345V112.716Z" fill="white"/>
<path d="M87.8441 98.8191C87.8441 103.239 86.4417 106.936 83.6793 109.826C80.7894 112.886 76.9645 114.416 72.3322 114.416C67.6574 114.416 63.8751 112.886 60.9427 109.826C58.1378 106.936 56.7354 103.239 56.7354 98.8191V90.3195C56.7354 85.8996 58.1378 82.1598 60.9852 79.1849C63.8326 76.1675 67.5724 74.6801 72.1622 74.6801C76.8795 74.6801 80.6619 76.1675 83.5093 79.1849C86.3567 82.2023 87.8016 85.8996 87.8016 90.3195V98.8191H87.8441ZM80.2794 98.2666V90.9994C80.2794 88.2371 79.6844 86.0696 78.4095 84.4547C76.9645 82.6698 74.9246 81.7348 72.2047 81.7348C69.5698 81.7348 67.5724 82.6273 66.2125 84.4547C64.98 86.0696 64.3425 88.2371 64.3425 90.9994V98.2666C64.3425 100.944 64.98 103.111 66.2125 104.726C67.6574 106.469 69.6973 107.361 72.3747 107.361C75.0521 107.361 77.0495 106.469 78.452 104.726C79.6419 103.111 80.2794 100.944 80.2794 98.2666Z" fill="white"/>
<path d="M114.576 75.2326L113.641 82.0748C112.238 81.8198 111.091 81.7348 110.156 81.7348C108.286 81.7348 105.949 82.8823 103.059 85.2197V112.674C103.059 113.439 102.719 113.821 101.996 113.821H95.4941V75.2326H102.081L102.421 79.0149C105.311 76.125 107.989 74.6376 110.411 74.6376C111.856 74.6801 113.258 74.8501 114.576 75.2326Z" fill="white"/>
<path d="M146.322 113.864H139.947L139.607 111.484C136.547 113.439 133.657 114.416 130.895 114.416C127.24 114.416 124.223 113.354 121.8 111.186C119.42 109.019 118.23 106.086 118.23 102.431C118.23 98.6066 119.633 95.7593 122.438 93.7618C124.86 92.1469 128.048 91.3394 131.957 91.3394H138.757V89.342C138.757 86.7071 138.29 84.7522 137.355 83.5622C136.42 82.3723 134.847 81.7348 132.68 81.7348C129.408 81.7348 125.923 82.2873 122.31 83.3922L120.525 76.805C124.945 75.3601 129.025 74.6376 132.68 74.6376C137.015 74.6376 140.372 75.87 142.752 78.3774C145.132 80.8423 146.322 84.1572 146.322 88.3221V113.864ZM138.715 106.639V97.0767H132.34C130.172 97.0767 128.558 97.5867 127.453 98.5641C126.348 99.5416 125.753 100.774 125.753 102.219C125.753 103.876 126.22 105.279 127.198 106.426C128.133 107.574 129.45 108.126 131.065 108.126C133.572 108.126 136.122 107.616 138.715 106.639Z" fill="white"/>
<path d="M173.137 75.2326L172.202 82.0748C170.842 81.8198 169.652 81.7348 168.717 81.7348C166.847 81.7348 164.51 82.8823 161.662 85.2197V112.674C161.662 113.439 161.322 113.821 160.6 113.821H154.098V75.2326H160.642L160.982 79.0149C163.872 76.125 166.55 74.6376 168.972 74.6376C170.417 74.6801 171.819 74.8501 173.137 75.2326Z" fill="white"/>
<path d="M182.658 109.274C182.658 110.676 182.148 111.866 181.17 112.886C180.193 113.906 178.96 114.416 177.6 114.416C176.283 114.416 175.093 113.906 174.115 112.886C173.138 111.866 172.628 110.676 172.628 109.274C172.628 107.829 173.138 106.639 174.115 105.576C175.135 104.556 176.283 104.046 177.6 104.046C179.003 104.046 180.193 104.556 181.17 105.576C182.148 106.639 182.658 107.829 182.658 109.274Z" fill="white"/>
<path d="M207.519 113.439C205.266 114.119 203.311 114.416 201.654 114.416C197.872 114.416 194.939 113.269 192.814 110.931C190.944 108.849 190.01 106.299 190.01 103.281V81.1399H184.782V75.2326H190.435L191.582 64.2255H197.574V75.2326H205.861V81.0974H197.574V102.431C197.574 105.704 198.934 107.361 201.654 107.361C202.589 107.361 204.289 107.149 206.669 106.724L207.519 113.439Z" fill="white"/>
<path d="M237.777 103.154C237.777 106.511 236.587 109.231 234.208 111.314C231.828 113.396 228.725 114.416 224.943 114.416C221.926 114.416 218.016 113.651 213.171 112.036L214.531 105.321C219.546 106.639 222.988 107.319 224.9 107.319C228.343 107.319 230.043 105.874 230.043 103.026C230.043 101.157 228.64 99.5841 225.878 98.3091C221.288 96.1842 218.696 94.8668 218.101 94.3993C215.338 92.3169 213.936 89.342 213.936 85.5597C213.936 82.2448 215.126 79.5674 217.506 77.6125C219.886 75.6576 222.86 74.6376 226.345 74.6376C229.15 74.6376 232.508 75.3176 236.417 76.72L234.59 83.3073C231.063 82.2448 228.343 81.7348 226.388 81.7348C223.2 81.7348 221.628 83.0523 221.628 85.6447C221.628 87.3021 223.03 88.747 225.793 89.937C230 91.6794 232.593 92.9544 233.57 93.7193C236.375 95.9292 237.777 99.0741 237.777 103.154Z" fill="white"/>
<path d="M0.807617 125.976C0.807617 125.423 1.02011 125.126 1.48759 125.126C1.95507 125.126 2.16756 125.381 2.16756 125.891V126.613C2.67754 125.636 3.7825 124.956 4.88745 124.956C6.1199 124.956 7.26736 125.763 7.73484 126.911C8.32981 125.721 9.64726 124.956 11.0497 124.956C12.9621 124.956 14.5771 126.316 14.5771 128.27V134.985C14.5771 135.453 14.3646 135.665 13.8971 135.665C13.4296 135.665 13.1746 135.453 13.1746 134.985V128.865C13.1746 127.505 12.3672 126.401 11.0072 126.401C9.43477 126.401 8.37231 127.76 8.37231 129.333V134.985C8.37231 135.453 8.15982 135.665 7.69234 135.665C7.22486 135.665 7.01237 135.453 7.01237 134.985V128.865C7.01237 127.505 6.2049 126.401 4.80246 126.401C3.18752 126.401 2.16756 127.718 2.16756 129.29V134.943C2.16756 135.41 1.95507 135.623 1.48759 135.623C1.02011 135.623 0.807617 135.41 0.807617 134.943V125.976Z" fill="white"/>
<path d="M25.9247 130.608C25.9247 133.413 24.3523 135.963 21.3774 135.963C18.4025 135.963 16.8301 133.285 16.8301 130.48C16.8301 127.675 18.4025 124.998 21.3774 124.998C24.3948 124.956 25.9247 127.803 25.9247 130.608ZM18.3175 130.31C18.3175 132.223 19.2525 134.645 21.3774 134.645C23.5023 134.645 24.4798 132.69 24.4798 130.693C24.4798 128.78 23.5023 126.316 21.3774 126.316C19.2525 126.316 18.3175 128.355 18.3175 130.31Z" fill="white"/>
<path d="M28.1758 125.891C28.1758 125.423 28.3883 125.168 28.8558 125.168C29.3232 125.168 29.5357 125.423 29.5357 125.891V126.783C30.2157 125.551 31.5331 124.956 32.8081 124.956C33.7856 124.956 34.168 125.423 34.168 125.806C34.168 126.188 33.8705 126.528 33.4456 126.528C32.9356 126.528 32.8081 126.401 32.1706 126.401C30.9382 126.401 29.5357 127.675 29.5357 129.12V135.028C29.5357 135.495 29.3232 135.708 28.8558 135.708C28.3883 135.708 28.1758 135.495 28.1758 135.028V125.891Z" fill="white"/>
<path d="M40.204 125.041C42.7114 125.041 44.0288 126.528 44.0288 128.44V135.198C44.0288 135.538 43.7739 135.878 43.3489 135.878C42.8814 135.878 42.6689 135.538 42.6689 135.198C42.6264 134.858 42.6264 134.73 42.6264 134.56C41.8189 135.41 40.629 135.878 39.3965 135.878C37.5691 135.878 35.7842 134.858 35.7842 132.733C35.7842 130.523 37.7816 129.418 39.779 129.418C40.8415 129.418 41.9889 129.758 42.6264 130.353V128.568C42.6264 127.25 41.5639 126.401 39.8215 126.401C38.5891 126.401 37.8241 126.868 37.2291 126.868C36.8891 126.868 36.5916 126.698 36.5916 126.273C36.5916 126.018 36.8041 125.721 37.1016 125.593C37.9091 125.253 38.8866 125.041 40.204 125.041ZM39.609 134.56C41.054 134.56 42.5414 133.795 42.5414 132.52C42.5414 131.373 41.0965 130.735 39.7365 130.735C38.4191 130.735 37.1441 131.33 37.1441 132.648C37.1866 134.008 38.3341 134.56 39.609 134.56Z" fill="white"/>
<path d="M53.7175 121.811C53.7175 121.343 53.9725 121.088 54.4399 121.088C54.9074 121.088 55.1199 121.343 55.1199 121.811V135.41C55.1199 135.835 54.9074 136.048 54.4399 136.048C53.9725 136.048 53.7175 135.835 53.7175 135.41V134.135C53.08 135.113 52.06 136.005 50.6576 136.005C47.7252 136.005 46.2803 133.37 46.2803 130.65C46.2803 127.93 47.7252 124.998 50.6576 124.998C51.805 124.998 53.165 125.593 53.7175 126.741V121.811ZM53.76 130.523C53.76 127.888 52.2725 126.316 50.7001 126.316C48.7452 126.316 47.7252 128.483 47.7252 130.608C47.7252 132.69 48.7027 134.688 50.6151 134.688C52.1875 134.73 53.76 133.158 53.76 130.523Z" fill="white"/>
<path d="M58.4779 121.003C58.9879 121.003 59.4129 121.428 59.4129 121.938C59.4129 122.448 58.9879 122.873 58.4779 122.873C57.968 122.873 57.543 122.448 57.543 121.938C57.5005 121.386 57.9255 121.003 58.4779 121.003ZM57.798 125.763C57.798 125.296 58.053 125.083 58.4779 125.083C58.9454 125.083 59.2004 125.296 59.2004 125.763V135.028C59.2004 135.495 58.9454 135.708 58.4779 135.708C58.0105 135.708 57.7555 135.495 57.7555 135.028V125.763H57.798Z" fill="white"/>
<path d="M65.9994 125.041C68.5068 125.041 69.8242 126.528 69.8242 128.44V135.198C69.8242 135.538 69.5692 135.878 69.1443 135.878C68.6768 135.878 68.4643 135.538 68.4643 135.198C68.4643 134.858 68.4643 134.73 68.4643 134.56C67.6568 135.41 66.4669 135.878 65.2344 135.878C63.407 135.878 61.6221 134.858 61.6221 132.733C61.6221 130.523 63.6195 129.418 65.6169 129.418C66.6794 129.418 67.8268 129.758 68.4643 130.353V128.568C68.4643 127.25 67.4018 126.401 65.6594 126.401C64.427 126.401 63.662 126.868 63.067 126.868C62.7695 126.868 62.4295 126.698 62.4295 126.273C62.4295 126.018 62.642 125.721 62.9395 125.593C63.7045 125.253 64.6819 125.041 65.9994 125.041ZM65.4469 134.56C66.8919 134.56 68.3793 133.795 68.3793 132.52C68.3793 131.373 66.9344 130.735 65.5744 130.735C64.257 130.735 62.982 131.33 62.982 132.648C62.982 134.008 64.172 134.56 65.4469 134.56Z" fill="white"/>
<path d="M86.6961 129.63C86.6961 130.65 86.5261 131.16 85.6337 131.16H79.3014C79.3014 132.86 81.0014 134.56 82.6588 134.56C83.7212 134.56 84.3587 134.348 85.2087 133.583C85.4637 133.37 85.7612 133.243 86.0161 133.243C86.3561 133.243 86.6111 133.455 86.6111 133.88C86.6111 134.05 86.5686 134.178 86.4836 134.263C85.5912 135.368 84.3162 135.92 82.6163 135.92C79.5139 135.92 77.7715 133.413 77.7715 130.438C77.7715 127.675 79.3864 124.913 82.3188 124.913C85.1237 124.956 86.6961 126.911 86.6961 129.63ZM85.2937 129.8C85.2937 127.888 84.1887 126.316 82.4038 126.316C80.5764 126.316 79.3014 127.93 79.3014 129.8H85.2937Z" fill="white"/>
<path d="M96.3013 123.808C96.3013 123.341 96.5138 123.128 96.9813 123.128C97.4488 123.128 97.6613 123.341 97.6613 123.808V125.338H99.3187C99.8287 125.338 100.041 125.551 100.041 125.976C100.041 126.401 99.8287 126.613 99.3612 126.613H97.6613V132.35C97.6613 133.838 97.7888 134.603 99.0212 134.603C99.5737 134.603 99.8287 134.815 99.8287 135.24C99.8287 135.665 99.5312 135.878 99.0212 135.878C96.7688 135.878 96.3013 134.56 96.3013 132.35V126.571H95.7063C95.2389 126.571 95.0264 126.358 95.0264 125.933C95.0264 125.508 95.1964 125.296 95.6213 125.296H96.3013V123.808Z" fill="white"/>
<path d="M110.453 129.63C110.453 130.65 110.283 131.16 109.391 131.16H103.059C103.059 132.86 104.759 134.56 106.416 134.56C107.479 134.56 108.116 134.348 108.966 133.583C109.221 133.37 109.518 133.243 109.773 133.243C110.113 133.243 110.411 133.455 110.411 133.88C110.411 134.05 110.368 134.178 110.283 134.263C109.391 135.368 108.116 135.92 106.416 135.92C103.314 135.92 101.571 133.413 101.571 130.438C101.571 127.675 103.186 124.913 106.119 124.913C108.881 124.956 110.453 126.911 110.453 129.63ZM109.051 129.8C109.051 127.888 107.946 126.316 106.161 126.316C104.376 126.316 103.059 127.93 103.059 129.8H109.051Z" fill="white"/>
<path d="M114.109 130.608C114.109 132.818 115.723 134.603 117.721 134.603C118.401 134.603 119.123 134.433 119.803 133.965C119.888 133.923 119.973 133.88 120.058 133.88C120.313 133.88 120.611 134.135 120.611 134.475C120.611 134.73 120.441 134.985 120.143 135.155C119.336 135.665 118.486 135.92 117.636 135.92C114.831 135.92 112.621 133.583 112.621 130.48C112.621 127.293 114.874 125.168 117.593 125.168C118.316 125.168 119.081 125.253 119.846 125.593C120.228 125.763 120.483 126.018 120.483 126.273C120.483 126.698 120.228 126.995 119.888 126.995C119.846 126.995 119.761 126.996 119.718 126.953C119.208 126.741 118.273 126.528 117.678 126.528C115.638 126.528 114.109 128.143 114.109 130.608Z" fill="white"/>
<path d="M122.522 125.891C122.522 125.423 122.735 125.168 123.202 125.168C123.67 125.168 123.882 125.423 123.882 125.891V126.613C124.52 125.508 125.582 124.998 126.687 124.998C128.472 124.998 130.342 126.358 130.342 128.568V135.07C130.342 135.538 130.13 135.75 129.662 135.75C129.195 135.75 128.982 135.538 128.982 135.07V129.163C128.982 127.25 127.707 126.358 126.475 126.358C125.157 126.358 123.882 127.335 123.882 129.163V135.07C123.882 135.538 123.67 135.75 123.202 135.75C122.735 135.75 122.522 135.538 122.522 135.07V125.891Z" fill="white"/>
<path d="M141.688 130.608C141.688 133.413 140.116 135.963 137.141 135.963C134.166 135.963 132.594 133.285 132.594 130.48C132.594 127.675 134.166 124.998 137.141 124.998C140.116 124.956 141.688 127.803 141.688 130.608ZM134.039 130.31C134.039 132.223 134.974 134.645 137.141 134.645C139.266 134.645 140.243 132.69 140.243 130.693C140.243 128.78 139.266 126.316 137.141 126.316C134.974 126.316 134.039 128.355 134.039 130.31Z" fill="white"/>
<path d="M143.942 121.768C143.942 121.301 144.155 121.046 144.622 121.046C145.09 121.046 145.345 121.301 145.345 121.768V135.07C145.345 135.538 145.132 135.75 144.665 135.75C144.197 135.75 143.985 135.538 143.985 135.07V121.768H143.942Z" fill="white"/>
<path d="M156.861 130.608C156.861 133.413 155.289 135.963 152.314 135.963C149.339 135.963 147.767 133.285 147.767 130.48C147.767 127.675 149.339 124.998 152.314 124.998C155.289 124.956 156.861 127.803 156.861 130.608ZM149.212 130.31C149.212 132.223 150.146 134.645 152.271 134.645C154.396 134.645 155.374 132.69 155.374 130.693C155.374 128.78 154.396 126.316 152.271 126.316C150.146 126.316 149.212 128.355 149.212 130.31Z" fill="white"/>
<path d="M166.339 125.551C166.339 125.126 166.552 124.913 167.019 124.913C167.487 124.913 167.742 125.126 167.742 125.593V135.028C167.742 138.343 165.532 140 163.237 140C162.174 140 160.942 139.787 159.922 139.15C159.667 138.98 159.539 138.725 159.539 138.47C159.539 138.088 159.794 137.748 160.219 137.748C160.517 137.748 160.687 137.918 160.942 138.045C161.664 138.428 162.429 138.64 163.194 138.64C164.894 138.64 166.382 137.578 166.382 135.24V134.263C165.872 135.495 164.597 135.963 163.449 135.963C160.432 135.963 158.859 133.285 158.859 130.48C158.859 127.675 160.474 124.998 163.449 124.998C164.597 124.998 165.957 125.806 166.382 126.783V125.551H166.339ZM163.407 134.645C164.937 134.645 166.424 133.243 166.424 130.48C166.424 127.76 164.894 126.358 163.364 126.358C161.877 126.358 160.304 127.718 160.304 130.438C160.304 133.243 161.877 134.645 163.407 134.645Z" fill="white"/>
<path d="M171.056 121.003C171.566 121.003 171.991 121.428 171.991 121.938C171.991 122.448 171.566 122.873 171.056 122.873C170.546 122.873 170.121 122.448 170.121 121.938C170.121 121.386 170.546 121.003 171.056 121.003ZM170.419 125.763C170.419 125.296 170.674 125.083 171.099 125.083C171.566 125.083 171.821 125.296 171.821 125.763V135.028C171.821 135.495 171.566 135.708 171.099 135.708C170.631 135.708 170.376 135.495 170.376 135.028V125.763H170.419Z" fill="white"/>
<path d="M178.62 125.041C181.128 125.041 182.445 126.528 182.445 128.44V135.198C182.445 135.538 182.19 135.878 181.765 135.878C181.298 135.878 181.085 135.538 181.085 135.198C181.085 134.858 181.085 134.73 181.085 134.56C180.278 135.41 179.088 135.878 177.856 135.878C176.028 135.878 174.243 134.858 174.243 132.733C174.243 130.523 176.241 129.418 178.238 129.418C179.3 129.418 180.448 129.758 181.085 130.353V128.568C181.085 127.25 180.023 126.401 178.281 126.401C177.048 126.401 176.283 126.868 175.688 126.868C175.348 126.868 175.051 126.698 175.051 126.273C175.051 126.018 175.263 125.721 175.561 125.593C176.326 125.253 177.303 125.041 178.62 125.041ZM178.026 134.56C179.47 134.56 180.958 133.795 180.958 132.52C180.958 131.373 179.513 130.735 178.153 130.735C176.836 130.735 175.603 131.33 175.603 132.648C175.603 134.008 176.751 134.56 178.026 134.56Z" fill="white"/>
<path d="M194.345 134.56C195.365 134.56 196.64 134.135 196.64 132.945C196.64 132.01 195.492 131.5 194.472 131.118C192.772 130.48 190.69 129.673 190.69 128.058C190.69 125.933 192.475 124.998 194.472 124.998C195.45 124.998 196.47 125.168 197.362 125.678C197.617 125.806 197.702 126.061 197.702 126.316C197.702 126.741 197.405 126.953 197.065 126.953C196.937 126.953 196.767 126.91 196.64 126.825C196.172 126.571 195.28 126.316 194.387 126.316C193.282 126.316 192.135 126.698 192.135 127.803C192.135 128.653 193.622 129.12 195.025 129.715C196.555 130.353 198.127 130.99 198.127 132.69C198.127 134.985 196.087 135.835 194.217 135.835C192.857 135.835 191.795 135.368 190.733 134.73C190.563 134.603 190.478 134.39 190.478 134.178C190.478 133.668 190.733 133.413 191.073 133.413C191.243 133.413 191.455 133.498 191.625 133.625C192.39 134.135 193.282 134.56 194.345 134.56Z" fill="white"/>
<path d="M209.049 130.608C209.049 133.413 207.476 135.963 204.501 135.963C201.527 135.963 199.954 133.285 199.954 130.48C199.954 127.675 201.527 124.998 204.501 124.998C207.476 124.956 209.049 127.803 209.049 130.608ZM201.399 130.31C201.399 132.223 202.334 134.645 204.459 134.645C206.626 134.645 207.561 132.69 207.561 130.693C207.561 128.78 206.584 126.316 204.459 126.316C202.334 126.316 201.399 128.355 201.399 130.31Z" fill="white"/>
<path d="M212.45 130.608C212.45 132.818 214.065 134.603 216.062 134.603C216.742 134.603 217.465 134.433 218.187 133.965C218.272 133.923 218.357 133.88 218.442 133.88C218.697 133.88 218.995 134.135 218.995 134.475C218.995 134.73 218.825 134.985 218.527 135.155C217.72 135.665 216.87 135.92 216.02 135.92C213.215 135.92 211.005 133.583 211.005 130.48C211.005 127.293 213.3 125.168 215.977 125.168C216.7 125.168 217.465 125.253 218.23 125.593C218.612 125.763 218.867 126.018 218.867 126.273C218.867 126.698 218.612 126.995 218.23 126.995C218.187 126.995 218.102 126.996 218.06 126.953C217.55 126.741 216.615 126.528 216.02 126.528C213.98 126.528 212.45 128.143 212.45 130.608Z" fill="white"/>
<path d="M221.672 121.003C222.182 121.003 222.607 121.428 222.607 121.938C222.607 122.448 222.182 122.873 221.672 122.873C221.162 122.873 220.737 122.448 220.737 121.938C220.695 121.386 221.12 121.003 221.672 121.003ZM220.992 125.763C220.992 125.296 221.247 125.083 221.672 125.083C222.14 125.083 222.395 125.296 222.395 125.763V135.028C222.395 135.495 222.14 135.708 221.672 135.708C221.205 135.708 220.95 135.495 220.95 135.028V125.763H220.992Z" fill="white"/>
<path d="M229.193 125.041C231.7 125.041 233.018 126.528 233.018 128.44V135.198C233.018 135.538 232.763 135.878 232.338 135.878C231.87 135.878 231.658 135.538 231.658 135.198C231.658 134.858 231.658 134.73 231.658 134.56C230.85 135.41 229.66 135.878 228.428 135.878C226.6 135.878 224.815 134.858 224.815 132.733C224.815 130.523 226.813 129.418 228.81 129.418C229.873 129.418 231.02 129.758 231.658 130.353V128.568C231.658 127.25 230.595 126.401 228.853 126.401C227.62 126.401 226.855 126.868 226.26 126.868C225.963 126.868 225.623 126.698 225.623 126.273C225.623 126.018 225.835 125.721 226.133 125.593C226.898 125.253 227.875 125.041 229.193 125.041ZM228.64 134.56C230.085 134.56 231.573 133.795 231.573 132.52C231.573 131.373 230.128 130.735 228.768 130.735C227.45 130.735 226.175 131.33 226.175 132.648C226.175 134.008 227.365 134.56 228.64 134.56Z" fill="white"/>
<path d="M235.525 121.768C235.525 121.301 235.738 121.046 236.205 121.046C236.673 121.046 236.928 121.301 236.928 121.768V135.07C236.928 135.538 236.715 135.75 236.248 135.75C235.78 135.75 235.568 135.538 235.568 135.07V121.768H235.525Z" fill="white"/>
<path d="M180.829 0.478106C179.851 -0.159369 178.237 -0.159369 177.217 0.478106L151.633 16.7125C151.293 16.9249 151.123 17.1799 150.995 17.4349C150.74 17.7324 150.613 18.0724 150.613 18.4124V23.7247C148.105 24.5746 146.32 26.8695 146.32 29.6319C146.32 32.3943 148.105 34.7317 150.613 35.5817V35.6242C171.139 31.8843 189.584 24.3196 202.546 14.2476L180.829 0.478106Z" fill="white"/>
<path d="M207.051 17.3499C206.924 17.0949 206.754 16.8824 206.456 16.7124L204.119 15.225L203.864 15.395C190.647 25.7221 171.82 33.4993 150.826 37.3241L150.656 37.3666V50.0311C150.656 51.2635 152.229 52.241 154.141 52.241H203.992C205.947 52.241 207.476 51.2635 207.476 50.0311V18.4124C207.476 18.0299 207.306 17.6474 207.051 17.3499Z" fill="white"/>
<path d="M33.9127 15.395L33.6152 15.1825L31.2778 16.67C30.9803 16.84 30.7678 17.0949 30.6828 17.3074C30.4278 17.6049 30.2578 17.9874 30.2578 18.3699V49.9886C30.2578 51.2211 31.8303 52.1985 33.7427 52.1985H83.5932C85.5056 52.1985 87.078 51.2211 87.078 49.9886V37.3666H86.9505C65.9564 33.5418 47.1296 25.7646 33.9127 15.395Z" fill="white"/>
<path d="M87.0794 35.5817C89.5868 34.7317 91.3717 32.4368 91.3717 29.6319C91.3717 26.8695 89.5868 24.5321 87.0794 23.7247V18.4124C87.0794 18.0724 86.9519 17.7324 86.6969 17.4349C86.5694 17.1799 86.3569 16.9249 86.0594 16.7125L60.4755 0.478106C59.498 -0.159369 57.8831 -0.159369 56.8631 0.478106L35.1465 14.2476C48.1085 24.3196 66.5527 31.8843 87.0794 35.6242V35.5817Z" fill="white"/>
<path d="M146.873 36.2192C144.833 34.9442 143.431 32.5218 143.431 29.7169C143.431 26.6996 145.046 24.1497 147.341 22.9597V18.4124C147.341 18.0299 147.171 17.6899 146.916 17.3499C146.788 17.0949 146.618 16.8824 146.321 16.7125L120.652 0.478106C119.674 -0.159369 118.059 -0.159369 117.039 0.478106L91.4555 16.7125C91.1155 16.9249 90.9455 17.1799 90.818 17.4349C90.563 17.7324 90.4355 18.0724 90.4355 18.4124V22.9172C92.773 24.1072 94.4304 26.6996 94.4304 29.7169C94.4304 32.5218 93.0279 34.9442 90.988 36.2192C109.262 39.194 128.599 39.194 146.873 36.2192Z" fill="white"/>
<path d="M90.4355 37.8766V49.9886C90.4355 51.2211 92.008 52.1985 93.9204 52.1985H143.771C145.726 52.1985 147.256 51.2211 147.256 49.9886V37.8766C137.991 39.4065 128.429 40.1715 118.867 40.1715C109.305 40.1715 99.7427 39.4065 90.4355 37.8766Z" fill="white"/>
</svg>
