<svg width="279" height="111" viewBox="0 0 279 111" fill="none" xmlns="http://www.w3.org/2000/svg">
<path d="M78.847 14.7608C74.7639 14.7608 71.4668 18.0749 71.4668 22.1303C71.4668 26.2075 74.7857 29.4998 78.847 29.4998C82.9083 29.4998 86.2272 26.1857 86.2272 22.1303C86.2272 20.9965 85.9652 19.9282 85.5066 18.9688C83.6943 17.4426 81.7729 16.0472 79.7641 14.8044C79.4802 14.7826 79.1745 14.7608 78.847 14.7608Z" fill="white"/>
<path d="M14.8912 66.4781C15.7428 65.2789 15.7428 65.2789 16.7472 66.3036C24.1492 73.7604 31.5949 81.1735 38.8878 88.7392C40.7656 90.6797 42.6871 91.5518 45.3072 91.2902C46.8139 91.1593 46.8794 91.2247 46.8794 89.7203C46.8794 83.0485 46.8794 76.3767 46.8794 69.7049C46.8794 66.6089 46.8575 63.5128 46.8794 60.4168C46.8794 59.61 46.6392 59.283 45.8094 59.3484C44.8487 59.4138 43.888 59.3702 42.9272 59.3702C41.4643 59.3702 41.3988 59.4356 41.3988 60.94C41.3988 67.5028 41.3988 74.0656 41.4206 80.6284C41.4206 81.3043 41.4206 81.9802 41.4206 82.9831C36.3768 78.0992 31.7696 73.3243 26.9441 68.2877C28.1013 68.2877 28.9529 68.2659 29.7826 68.2877C30.6342 68.3313 31.2456 68.0479 31.7478 67.3066C32.9487 65.5405 34.1933 63.8181 35.4379 62.0738C38.3419 57.953 41.2023 53.8104 44.1282 49.6896C44.9142 48.5776 44.9579 48.5994 45.9623 49.6242C48.5825 52.306 51.2027 55.0096 53.8447 57.6696C57.0326 60.8964 60.286 64.0579 63.4302 67.3284C64.2818 68.2005 65.177 68.5712 66.3342 68.6148C67.7098 68.6584 67.8845 68.5276 67.8845 67.1976C67.8845 60.3296 67.8845 53.4833 67.9064 46.6153C67.9064 44.3914 67.7535 44.2388 65.5045 44.5222C65.4608 44.5222 65.439 44.5222 65.3953 44.544C64.5874 44.6094 64.2163 44.9365 64.2163 45.8522C64.2818 49.755 64.2381 53.6796 64.2381 57.5823C64.2381 59.1304 64.2381 60.6566 64.2381 62.4881C63.8232 62.1392 63.6049 61.9866 63.4302 61.8122C57.3601 55.6855 51.2682 49.5588 45.2199 43.4102C44.6522 42.8215 44.3247 42.7343 43.8225 43.4538C41.9665 46.1356 40.0232 48.7956 38.1454 51.4774C34.5426 56.6448 30.9399 61.7904 27.4026 66.9795C26.7694 67.9171 26.4201 67.8517 25.6995 67.1104C22.5771 63.8835 19.4111 60.6784 16.2668 57.4733C15.1969 56.3832 14.8912 56.405 14.1489 57.4733C12.5331 59.8281 10.8518 62.161 9.236 64.5376C9.14866 64.6684 9.03949 64.7992 8.95215 64.93C9.47619 67.3066 10.1531 69.6177 11.0265 71.8417C11.1356 71.7108 11.223 71.5364 11.3103 71.4056C12.5112 69.8576 13.6903 68.1569 14.8912 66.4781Z" fill="white"/>
<path d="M94.982 62.3791C92.2309 59.7409 89.6762 56.9283 86.925 54.2901C86.0952 53.4833 85.593 54.1374 85.3529 54.5081C84.3266 56.0997 83.2785 57.6478 82.165 59.174C80.4182 61.5724 78.7587 64.0361 77.0556 66.4563C76.1822 67.6991 75.3525 68.9637 74.5009 70.2064C73.4965 71.6891 72.5576 73.2153 71.444 74.6107C69.9156 76.5294 68.5181 78.5353 67.077 80.5194C65.1337 83.2012 63.4524 86.0792 61.4873 88.761C59.3257 91.7045 57.3168 94.7351 55.2425 97.7222C54.9805 98.1146 54.915 98.5725 55.0897 98.9868C55.2644 99.4228 55.7229 99.3356 56.0722 99.292C57.9937 99.074 59.8934 99.0958 61.8148 99.1394C62.8192 99.1612 63.518 98.7469 63.9765 97.9184C64.9591 96.1959 66.3783 94.7787 67.3827 93.0127C68.2561 91.4646 69.4352 90.091 70.4615 88.6302C72.0336 86.3845 73.5183 84.0951 75.1778 81.9148C77.0119 79.4946 78.6932 76.9655 80.4618 74.5017C82.4706 71.7109 84.5013 68.9201 86.3136 65.9984C87.056 64.821 87.2307 65.0609 88.0167 65.8894C90.7679 68.811 93.7593 71.5364 96.4232 74.5453C96.8598 75.0468 97.2529 75.352 97.6022 75.4828C98.7813 73.0627 99.7421 70.5335 100.484 67.9171C98.4101 66.3255 96.8817 64.1888 94.982 62.3791Z" fill="white"/>
<path d="M100.637 54.3555C96.3352 50.4309 92.0555 46.4845 87.7541 42.5599C85.3522 40.3796 86.2693 40.4886 84.326 42.8652C81.2691 46.6153 78.4087 50.5617 75.461 54.4209C74.4348 55.7727 73.3867 57.0809 72.3823 58.4545C72.1421 58.7816 71.5963 59.2612 72.3386 59.6101C73.3649 60.0898 75.5484 59.5665 76.2034 58.738C76.6183 58.2147 77.0113 57.6914 77.4262 57.1681C80.1992 53.5488 82.9941 49.9512 85.7671 46.3101C86.2038 45.7214 86.4877 45.6996 87.0554 46.2229C89.8939 48.9047 92.7979 51.5211 95.6801 54.1593C97.6234 55.9471 99.5667 57.7568 101.532 59.5447C101.707 59.6973 101.881 59.8717 102.078 59.9153C102.252 58.3019 102.34 56.6448 102.34 54.9878C102.34 51.8699 102.034 48.8175 101.445 45.874C101.445 48.9919 101.445 51.8481 101.445 54.9224C100.964 54.6171 100.789 54.5081 100.637 54.3555Z" fill="white"/>
<path d="M14.1483 46.5063C16.6812 49.0791 19.214 51.6737 21.7905 54.2029C22.4892 54.8788 23.5155 54.6608 24.3234 54.4427C24.8474 54.3119 24.7601 53.5052 24.7601 52.9601C24.8037 51.0414 24.7819 49.1227 24.7819 47.204C24.7819 46.768 24.7382 46.3319 25.0658 45.9394C26.747 44.0208 28.0571 41.8404 29.5201 39.7691C30.6773 38.1339 30.59 38.1339 32.0311 39.6383C33.9744 41.666 35.9832 43.6283 37.9483 45.6124C38.3195 45.9831 38.7344 46.1575 39.2366 46.0049C39.6296 45.8958 39.6733 45.547 39.6733 45.1981C39.6733 42.5817 39.6733 39.9654 39.6733 37.349C39.6733 37.0219 39.586 36.7603 39.2584 36.6513C38.9527 36.564 38.6471 36.6513 38.4505 36.8911C38.2322 37.1309 38.3195 37.458 38.3195 37.7414C38.3195 39.7473 38.3195 41.7532 38.3195 43.999C37.5335 43.214 36.9439 42.6035 36.3762 42.0149C34.7168 40.2924 33.0355 38.5699 31.376 36.8693C30.8957 36.3896 30.4808 35.91 29.8694 36.8475C29.0179 38.1775 28.0353 39.4421 27.1401 40.7285C26.4413 41.7314 25.7863 42.778 24.7819 43.8463C24.7819 41.9931 24.7819 40.3796 24.7819 38.7662C24.7819 38.3955 24.8256 38.0249 24.3889 37.8286C23.2535 37.349 22.3582 37.9158 22.3582 39.115C22.3582 42.9742 22.3582 46.8552 22.3582 50.8016C21.332 50.5399 20.9826 49.7114 20.3931 49.1663C18.821 47.7273 17.3799 46.1575 15.8733 44.6313C14.2138 42.9524 12.5762 41.2517 10.8949 39.5947C10.7857 39.4857 10.6766 39.3767 10.5455 39.3113C10.2399 40.1616 9.97784 41.0119 9.71582 41.884C9.78132 41.9931 9.84683 42.0803 9.91233 42.1457C11.3316 43.6283 12.729 45.0673 14.1483 46.5063Z" fill="white"/>
<path d="M73.0602 48.1634C73.6061 48.7521 74.2611 48.9701 74.938 48.7303C75.6585 48.4904 75.3092 47.7709 75.331 47.2695C75.3529 44.0644 75.331 40.8593 75.3529 37.6542C75.3529 36.7385 74.8943 36.6295 74.1519 36.7385C73.4751 36.8475 73.6061 37.349 73.6061 37.7632C73.5842 40.445 73.6061 43.1268 73.6061 46.0485C72.5798 45.0455 71.7719 44.2606 71.0077 43.4757C68.7369 41.1645 66.4661 38.8534 64.1952 36.5423C63.7149 36.0626 63.3218 35.9536 62.8851 36.6513C62.2301 37.7196 61.4659 38.7008 60.7453 39.7255C58.8894 42.3855 57.0116 45.0237 55.1556 47.6837C54.9809 47.9453 54.6315 48.207 54.8499 48.5558C55.0464 48.8829 55.4613 48.7303 55.767 48.7521C56.5093 48.8175 56.8805 48.3378 57.2517 47.7927C59.1732 44.9801 61.1383 42.1675 63.0816 39.3549C63.4528 38.8098 63.7804 38.6354 64.3481 39.224C65.7018 40.6413 67.1211 41.9931 68.4967 43.3885C70.0251 44.9801 71.5536 46.5499 73.0602 48.1634Z" fill="white"/>
<path d="M148.106 22.7626C146.643 22.7626 145.202 22.7626 143.739 22.7844C142.385 22.7844 142.232 22.9152 142.232 24.267C142.211 27.4285 142.232 30.59 142.232 33.7514C142.232 36.8693 142.232 40.009 142.232 43.1268C142.232 43.5629 142.232 43.9772 142.232 44.5659C141.272 44.1298 140.922 43.3449 140.442 42.7126C136.468 37.3708 132.516 31.9854 128.564 26.6218C126.686 24.0926 124.808 21.5634 122.952 19.0124C122.428 18.2929 122.188 18.2057 121.708 19.0342C117.603 26.0113 113.498 32.9665 109.349 39.9218C109.087 40.3578 108.956 41.0991 108.388 41.0991C102.187 17.4426 80.6799 0 55.0894 0C24.6516 0 0 24.6159 0 55.0096C0 85.4034 24.6516 110.019 55.0894 110.019C85.5273 110.019 110.179 85.4034 110.179 55.0096C110.179 54.2683 110.157 53.527 110.135 52.8075C110.463 51.8263 110.943 50.9106 111.489 49.9731C114.764 44.326 117.996 38.6354 121.227 32.9665C121.271 32.8793 121.315 32.7703 121.358 32.6613C122.144 31.1787 122.297 31.1787 123.28 32.465C126.49 36.6731 129.699 40.8811 132.909 45.0891C136.053 49.2099 139.219 53.309 142.363 57.4298C142.866 58.1057 143.521 58.4327 144.416 58.4545C145.639 58.4327 146.818 58.4327 148.019 58.4327C149.351 58.4109 149.591 58.1929 149.591 56.8193C149.591 48.9483 149.591 41.0555 149.591 33.1846C149.591 30.1975 149.591 27.2323 149.569 24.2452C149.569 22.8062 149.525 22.7626 148.106 22.7626ZM55.0894 102.148C29.0186 102.148 7.88239 81.0427 7.88239 55.0096C7.88239 28.9765 29.0186 7.87098 55.0894 7.87098C81.1603 7.87098 102.296 28.9765 102.296 55.0096C102.296 81.0427 81.1603 102.148 55.0894 102.148Z" fill="white"/>
<path d="M262.783 40.0525C262.193 39.8345 261.21 39.8999 261.167 39.224C261.123 38.5917 262.128 38.4827 262.63 38.1121C266.189 35.6265 267.477 32.8139 266.145 28.3224C265.206 25.1173 262.608 23.5911 259.529 22.8498C257.018 22.2393 254.42 22.1957 251.843 22.1739C249.507 22.1957 247.192 22.3483 244.9 22.7408C242.825 23.0896 242.563 23.3949 242.563 25.5316C242.563 33.1191 242.563 40.7066 242.563 48.2942C242.563 50.8015 242.542 53.3089 242.563 55.8163C242.585 57.4951 242.825 57.7132 244.419 58.1056C245.14 58.2801 245.861 58.2583 246.581 58.3237C250.599 58.7379 254.638 58.8469 258.634 58.2583C263.481 57.5388 267.957 54.5517 268.22 48.9483C268.394 45.4379 266.08 41.3171 262.783 40.0525ZM251.145 32.2906C251.145 32.2906 251.166 32.2906 251.145 32.2906C251.166 30.8734 251.188 29.4562 251.145 28.0608C251.123 27.3849 251.385 27.1232 252.018 27.1668C252.28 27.1886 252.52 27.1668 252.782 27.1668C257.346 27.145 259.769 31.1568 257.586 35.1686C256.647 36.8693 255.009 37.567 253.132 37.5888C250.773 37.6324 251.188 37.8068 251.145 35.6701C251.123 34.5363 251.145 33.4244 251.145 32.2906ZM258.765 50.8451C258.044 52.5022 256.385 52.9819 254.725 53.2217C254.267 53.2871 253.787 53.2653 253.306 53.2871C251.123 53.2871 251.145 53.2871 251.145 51.0632C251.166 48.316 251.166 45.547 251.123 42.7998C251.101 41.993 251.363 41.6878 252.171 41.7314C254.332 41.7968 256.538 41.8622 258.023 43.7591C259.726 45.9394 259.813 48.4032 258.765 50.8451Z" fill="white"/>
<path d="M239.506 55.8163C236.951 51.5429 234.418 47.2694 231.842 43.0178C231.449 42.3637 231.492 42.0149 232.257 41.6224C235.532 39.9653 237.759 37.458 238.087 33.6642C238.392 30.1757 237.497 27.1014 234.571 24.8993C232.279 23.1769 229.593 22.5228 226.798 22.3701C223.304 22.1957 219.833 22.2393 216.361 22.7408C214.549 23.0024 214.156 23.3077 214.156 25.1391C214.156 30.3283 214.156 35.5175 214.156 40.7285C214.156 46.0703 214.177 51.412 214.134 56.7538C214.134 57.7132 214.439 58.171 215.422 58.1929C217.387 58.2583 219.33 58.3019 221.296 58.171C222.344 58.1056 222.693 57.6696 222.693 56.6884C222.671 53.1563 222.671 49.646 222.715 46.1139C222.715 45.3726 222.3 44.2606 223.348 44.0426C224.309 43.8463 224.527 44.9365 224.877 45.6124C226.798 49.4061 228.698 53.1999 230.575 57.0155C230.947 57.7568 231.427 58.0838 232.257 58.171C234.615 58.4327 236.973 58.0838 239.331 58.1493C240.095 58.1711 240.357 57.6478 240.117 56.9501C239.986 56.5576 239.724 56.187 239.506 55.8163ZM229.484 35.125C229.287 38.2865 226.514 40.4886 223.37 40.0308C222.759 39.9435 222.715 39.5947 222.715 39.115C222.715 37.2617 222.715 35.4085 222.715 33.5552C222.715 31.7673 222.737 30.0013 222.715 28.2134C222.715 27.5811 222.911 27.3413 223.588 27.2977C227.759 27.036 229.418 29.26 229.505 32.9229C229.505 33.6642 229.527 34.4055 229.484 35.125Z" fill="white"/>
<path d="M209.592 36.9565C209.592 32.6612 209.592 28.3878 209.592 24.0926C209.592 22.8498 209.395 22.6535 208.129 22.6317C206.862 22.6099 205.574 22.6317 204.308 22.6317C202.692 22.6535 202.648 22.6972 202.648 24.2888C202.648 31.5929 202.648 38.897 202.626 46.1793C202.626 47.8799 202.561 49.6242 201.382 51.0196C200.377 52.2188 197.997 52.633 196.207 52.0007C194.46 51.3685 193.456 49.9948 193.456 47.9889C193.412 40.1398 193.434 32.3124 193.412 24.4632C193.412 22.7626 193.281 22.6317 191.534 22.6099C189.853 22.6099 188.193 22.6099 186.512 22.6099C184.503 22.6099 184.416 22.6972 184.416 24.7031C184.416 30.2629 184.416 35.8227 184.416 41.3608C184.416 44.2388 184.372 47.095 184.547 49.9512C184.722 52.8075 185.857 55.1186 188.303 56.7103C192.56 59.4793 197.255 59.6537 201.949 58.4327C206.884 57.1681 209.657 53.9848 209.613 48.3596C209.548 44.5876 209.57 40.7721 209.592 36.9565Z" fill="white"/>
<path d="M178.545 46.4409C176.864 41.6442 175.226 36.8475 173.545 32.0726C172.562 29.2599 171.514 26.4909 170.531 23.6783C170.248 22.8716 169.724 22.5445 168.872 22.5881C167.933 22.6318 166.972 22.5881 166.033 22.6099C164.068 22.6099 164.003 22.6972 163.326 24.5722C161.273 30.4155 159.177 36.2588 157.103 42.1021C155.4 46.877 153.697 51.6519 152.015 56.4486C151.513 57.8876 151.797 58.2583 153.369 58.2583C154.417 58.2583 155.487 58.1929 156.535 58.2801C157.824 58.3891 158.457 57.8222 158.806 56.6231C159.352 54.7698 159.985 52.9601 160.553 51.1286C160.793 50.3219 161.23 49.9731 162.125 49.9949C164.527 50.0603 166.929 50.0603 169.33 49.9949C170.269 49.9731 170.706 50.3655 170.968 51.2158C171.579 53.1781 172.278 55.1404 172.933 57.1027C173.195 57.9094 173.697 58.2801 174.549 58.2583C175.575 58.2365 176.58 58.2583 177.606 58.2583C177.606 58.2801 177.606 58.2801 177.606 58.3019C178.654 58.3019 179.724 58.3237 180.772 58.3019C182.169 58.2583 182.497 57.8222 182.038 56.5358C180.925 53.1345 179.724 49.7986 178.545 46.4409ZM168.239 45.2853C166.536 45.2853 164.833 45.2635 163.129 45.2635C162.627 45.2635 162.496 45.0455 162.627 44.5876C163.61 41.2954 164.57 38.0031 165.553 34.7108C165.662 34.7108 165.771 34.7326 165.881 34.7326C166.688 37.3926 167.496 40.0526 168.304 42.7126C168.479 43.3013 168.654 43.8899 168.828 44.4786C169.025 45.0237 168.828 45.2853 168.239 45.2853Z" fill="white"/>
<path d="M132.668 69.3997H133.498L136.555 74.0875H136.576V69.3997H137.297V75.1994H136.445L133.41 70.5335H133.389V75.1776H132.668V69.3997Z" fill="white"/>
<path d="M143.586 73.1063C143.586 74.5671 142.756 75.3303 141.293 75.3303C139.808 75.3303 138.913 74.6325 138.913 73.1063V69.3998H139.677V73.1063C139.677 74.1311 140.267 74.698 141.293 74.698C142.276 74.698 142.8 74.1311 142.8 73.1063V69.3998H143.564V73.1063H143.586ZM141.446 67.8299H142.341L141.271 68.9855H140.747L141.446 67.8299Z" fill="white"/>
<path d="M149.306 71.144C149.154 70.3155 148.477 69.9012 147.691 69.9012C146.315 69.9012 145.726 71.035 145.726 72.256C145.726 73.586 146.315 74.6762 147.691 74.6762C148.695 74.6762 149.285 73.9566 149.372 72.9973H150.136C149.983 74.4363 149.088 75.3085 147.625 75.3085C145.813 75.3085 144.939 73.9785 144.939 72.2996C144.939 70.6208 145.9 69.2471 147.691 69.2471C148.892 69.2471 149.896 69.9012 150.071 71.1222H149.306V71.144Z" fill="white"/>
<path d="M151.489 69.3997H152.253V74.5453H155.332V75.1994H151.489V69.3997Z" fill="white"/>
<path d="M156.403 69.3997H160.399V70.0538H157.167V71.8853H160.18V72.5394H157.167V74.5453H160.42V75.1994H156.381V69.3997H156.403Z" fill="white"/>
<path d="M164.242 69.2689C166.076 69.2689 167.015 70.7298 167.015 72.2996C167.015 73.8694 166.076 75.3302 164.242 75.3302C162.408 75.3302 161.469 73.8694 161.469 72.2996C161.447 70.7298 162.386 69.2689 164.242 69.2689ZM164.242 74.6761C165.661 74.6761 166.251 73.4552 166.251 72.2996C166.251 71.1222 165.661 69.923 164.242 69.923C162.823 69.923 162.233 71.144 162.233 72.2996C162.233 73.4552 162.823 74.6761 164.242 74.6761Z" fill="white"/>
<path d="M171.032 69.3997H173.019C174.81 69.3997 175.814 70.2937 175.814 72.147C175.814 74.0875 174.962 75.1776 173.019 75.1776H171.032V69.3997ZM171.796 74.5453H173.085C173.609 74.5453 175.028 74.3927 175.028 72.256C175.028 70.8824 174.526 70.032 173.085 70.032H171.775V74.5453H171.796Z" fill="white"/>
<path d="M177.146 69.3997H181.142V70.0538H177.91V71.8853H180.923V72.5394H177.91V74.5453H181.163V75.1994H177.124V69.3997H177.146Z" fill="white"/>
<path d="M185.183 69.3997H187.715C188.873 69.3997 189.484 70.032 189.484 71.1004C189.484 72.1688 188.851 72.8229 187.715 72.8011H185.947V75.1776H185.183V69.3997ZM185.969 72.1688H187.475C188.349 72.1688 188.742 71.7981 188.742 71.1004C188.742 70.4027 188.349 70.032 187.475 70.032H185.969V72.1688Z" fill="white"/>
<path d="M190.858 69.3997H194.853V70.0538H191.622V71.8853H194.635V72.5394H191.622V74.5453H194.875V75.1994H190.836V69.3997H190.858Z" fill="white"/>
<path d="M199.57 71.1004C199.483 70.2719 198.937 69.923 198.129 69.923C197.474 69.923 196.819 70.1629 196.819 70.9042C196.819 71.6237 197.736 71.7327 198.675 71.9289C199.592 72.147 200.531 72.474 200.531 73.6078C200.531 74.8506 199.33 75.3302 198.26 75.3302C196.95 75.3302 195.858 74.6979 195.858 73.2807H196.579C196.579 74.2619 197.387 74.6761 198.26 74.6761C198.959 74.6761 199.723 74.4581 199.723 73.6296C199.723 72.8447 198.806 72.692 197.867 72.4958C196.95 72.2996 196.011 72.0161 196.011 70.9696C196.011 69.7922 197.059 69.2689 198.107 69.2689C199.286 69.2689 200.204 69.8358 200.247 71.1004H199.57Z" fill="white"/>
<path d="M206.623 75.7009L205.728 74.9814C205.357 75.1994 204.877 75.3302 204.331 75.3302C202.497 75.3302 201.558 73.8694 201.558 72.2996C201.558 70.7298 202.497 69.2689 204.331 69.2689C206.165 69.2689 207.104 70.7298 207.104 72.2996C207.104 73.1935 206.82 74.0439 206.23 74.6107L206.995 75.2212L206.623 75.7009ZM204.92 73.5424L205.684 74.1529C206.143 73.7168 206.361 72.9973 206.361 72.2996C206.361 71.1222 205.772 69.923 204.353 69.923C202.933 69.923 202.344 71.144 202.344 72.2996C202.344 73.477 202.933 74.6761 204.353 74.6761C204.658 74.6761 204.92 74.6107 205.16 74.5235L204.527 74.022L204.92 73.5424Z" fill="white"/>
<path d="M213.108 73.1063C213.108 74.5671 212.279 75.3302 210.816 75.3302C209.331 75.3302 208.436 74.6325 208.436 73.1063V69.3997H209.2V73.1063C209.2 74.1311 209.789 74.6979 210.816 74.6979C211.798 74.6979 212.322 74.1311 212.322 73.1063V69.3997H213.086V73.1063H213.108Z" fill="white"/>
<path d="M214.789 69.3997H215.553V75.1994H214.789V69.3997Z" fill="white"/>
<path d="M220.62 71.1004C220.533 70.2719 219.987 69.923 219.179 69.923C218.524 69.923 217.869 70.1629 217.869 70.9042C217.869 71.6237 218.786 71.7327 219.725 71.9289C220.642 72.147 221.581 72.474 221.581 73.6078C221.581 74.8506 220.38 75.3302 219.31 75.3302C218 75.3302 216.908 74.6979 216.908 73.2807H217.629C217.629 74.2619 218.437 74.6761 219.31 74.6761C220.009 74.6761 220.773 74.4581 220.773 73.6296C220.773 72.8447 219.856 72.692 218.917 72.4958C218 72.2996 217.061 72.0161 217.061 70.9696C217.061 69.7922 218.109 69.2689 219.157 69.2689C220.336 69.2689 221.253 69.8358 221.297 71.1004H220.62Z" fill="white"/>
<path d="M224.507 69.3997H225.358L227.629 75.1994H226.778L226.144 73.4552H223.699L223.044 75.1994H222.258L224.507 69.3997ZM223.939 72.8011H225.904L224.943 70.0975H224.922L223.939 72.8011Z" fill="white"/>
<path d="M231.252 69.3997H235.248V70.0538H232.017V71.8853H235.03V72.5394H232.017V74.5453H235.27V75.1994H231.23V69.3997H231.252Z" fill="white"/>
<path d="M236.646 69.3997H237.695L239.529 74.2619L241.363 69.3997H242.411V75.1994H241.69V70.3809H241.668L239.856 75.1994H239.201L237.389 70.3809H237.367V75.1994H236.646V69.3997Z" fill="white"/>
<path d="M127.101 79.124H128.17L130.398 84.9237H129.306L128.76 83.3974H126.446L125.9 84.9237H124.852L127.101 79.124ZM126.729 82.6125H128.498L127.625 80.127H127.603L126.729 82.6125Z" fill="white"/>
<path d="M131.358 79.124H134.131C135.398 79.124 136.053 79.7127 136.053 80.6938C136.053 81.8058 135.289 82.0892 135.092 82.1547V82.1765C135.442 82.2201 135.944 82.4817 135.944 83.3974C135.944 84.0733 136.031 84.6838 136.271 84.9237H135.179C135.027 84.662 135.027 84.3568 135.027 84.0733C135.027 83.005 134.808 82.5471 133.869 82.5471H132.385V84.9237H131.358V79.124ZM132.385 81.7622H134.044C134.677 81.7622 135.027 81.4351 135.027 80.8465C135.027 80.1052 134.546 79.9525 134.022 79.9525H132.363V81.7622H132.385Z" fill="white"/>
<path d="M142.669 84.9019L142.167 85.4469L141.315 84.7056C140.879 84.9455 140.398 85.0545 139.962 85.0545C138.215 85.0545 137.188 83.6809 137.188 82.0238C137.188 80.3668 138.237 78.9932 139.962 78.9932C141.686 78.9932 142.735 80.3668 142.735 82.0238C142.735 82.8088 142.494 83.7027 141.905 84.2478L142.669 84.9019ZM140.027 83.5937L140.507 83.0268L141.206 83.6373C141.577 83.2012 141.708 82.6125 141.708 82.0238C141.708 80.9119 141.184 79.8217 139.94 79.8217C138.695 79.8217 138.171 80.9119 138.171 82.0238C138.171 83.1358 138.695 84.226 139.94 84.226C140.158 84.226 140.376 84.1824 140.595 84.0951L140.027 83.5937Z" fill="white"/>
<path d="M144.001 79.124H145.028V82.5035C145.028 83.2884 145.071 84.1824 146.381 84.1824C147.691 84.1824 147.735 83.2884 147.735 82.5035V79.124H148.739V82.8306C148.739 84.3132 147.779 85.0545 146.359 85.0545C144.94 85.0545 143.979 84.3132 143.979 82.8306V79.124H144.001Z" fill="white"/>
<path d="M150.354 79.124H151.381V84.9237H150.354V79.124Z" fill="white"/>
<path d="M152.451 79.124H157.146V79.9961H155.312V84.9019H154.285V80.0179H152.451V79.124Z" fill="white"/>
<path d="M158.238 79.124H162.408V79.9961H159.242V81.5224H162.168V82.3509H159.242V84.0515H162.452V84.9237H158.216V79.124H158.238Z" fill="white"/>
<path d="M163.195 79.124H167.89V79.9961H166.056V84.9019H165.029V80.0179H163.195V79.124Z" fill="white"/>
<path d="M168.914 79.124H169.941V82.5035C169.941 83.2884 169.984 84.1824 171.294 84.1824C172.604 84.1824 172.648 83.2884 172.648 82.5035V79.124H173.653V82.8306C173.653 84.3132 172.692 85.0545 171.273 85.0545C169.853 85.0545 168.893 84.3132 168.893 82.8306V79.124H168.914Z" fill="white"/>
<path d="M175.246 79.124H178.019C179.286 79.124 179.941 79.7127 179.941 80.6938C179.941 81.8058 179.176 82.0892 178.98 82.1547V82.1765C179.329 82.2201 179.831 82.4817 179.831 83.3974C179.831 84.0733 179.919 84.6838 180.159 84.9237H179.067C178.914 84.662 178.914 84.3568 178.914 84.0733C178.914 83.005 178.696 82.5471 177.757 82.5471H176.272V84.9237H175.246V79.124ZM176.272 81.7622H177.932C178.565 81.7622 178.914 81.4351 178.914 80.8465C178.914 80.1052 178.434 79.9525 177.91 79.9525H176.251V81.7622H176.272Z" fill="white"/>
<path d="M182.933 79.124H184.003L186.23 84.9237H185.138L184.592 83.3974H182.278L181.732 84.9237H180.684L182.933 79.124ZM182.561 82.6125H184.33L183.457 80.127H183.435L182.561 82.6125Z" fill="white"/>
<path d="M189.875 79.124H194.046V79.9961H190.88V81.5224H193.806V82.3509H190.88V84.0515H194.09V84.9237H189.854V79.124H189.875Z" fill="white"/>
<path d="M197.997 79.124H199.024V82.5035C199.024 83.2884 199.067 84.1824 200.377 84.1824C201.687 84.1824 201.731 83.2884 201.731 82.5035V79.124H202.736V82.8306C202.736 84.3132 201.775 85.0545 200.356 85.0545C198.936 85.0545 197.976 84.3132 197.976 82.8306V79.124H197.997Z" fill="white"/>
<path d="M204.331 79.124H207.104C208.371 79.124 209.026 79.7127 209.026 80.6938C209.026 81.8058 208.261 82.0892 208.065 82.1547V82.1765C208.414 82.2201 208.916 82.4817 208.916 83.3974C208.916 84.0733 209.004 84.6838 209.244 84.9237H208.152C207.999 84.662 207.999 84.3568 207.999 84.0733C207.999 83.005 207.781 82.5471 206.842 82.5471H205.357V84.9237H204.331V79.124ZM205.335 81.7622H206.995C207.628 81.7622 207.977 81.4351 207.977 80.8465C207.977 80.1052 207.497 79.9525 206.973 79.9525H205.314V81.7622H205.335Z" fill="white"/>
<path d="M210.443 79.124H213.26C214.308 79.124 214.985 79.6037 214.985 80.563C214.985 81.1517 214.679 81.566 214.155 81.8058V81.8276C214.854 81.9802 215.247 82.5253 215.247 83.3102C215.247 84.226 214.614 84.9237 213.107 84.9237H210.443V79.124ZM211.47 81.566H213.129C213.609 81.566 213.981 81.2825 213.981 80.7593C213.981 80.1706 213.675 79.9743 213.129 79.9743H211.47V81.566ZM211.47 84.0951H213.26C213.871 84.0951 214.243 83.7681 214.243 83.1794C214.243 82.6125 213.893 82.2855 213.26 82.2855H211.47V84.0951Z" fill="white"/>
<path d="M218.13 79.124H219.2L221.427 84.9237H220.335L219.789 83.3974H217.475L216.929 84.9237H215.881L218.13 79.124ZM217.759 82.6125H219.527L218.654 80.127H218.632L217.759 82.6125Z" fill="white"/>
<path d="M222.367 79.124H223.437L226.079 83.3974H226.101V79.124H227.062V84.9237H225.992L223.35 80.672H223.328V84.9237H222.367V79.124Z" fill="white"/>
<path d="M228.676 79.124H229.702V84.9237H228.676V79.124Z" fill="white"/>
<path d="M231.996 83.005C231.996 83.8989 232.651 84.2478 233.459 84.2478C234.354 84.2478 234.682 83.8117 234.682 83.3756C234.682 82.9396 234.441 82.7434 234.201 82.6561C233.786 82.5035 233.262 82.3945 232.476 82.1765C231.494 81.9148 231.188 81.3043 231.188 80.7156C231.188 79.5601 232.258 79.015 233.306 79.015C234.507 79.015 235.533 79.6473 235.533 80.8683H234.507C234.463 80.127 233.961 79.8435 233.262 79.8435C232.782 79.8435 232.192 80.0179 232.192 80.6066C232.192 81.0209 232.476 81.2389 232.891 81.3479C232.979 81.3697 234.267 81.6968 234.572 81.784C235.337 82.002 235.708 82.6561 235.708 83.2666C235.708 84.5748 234.551 85.0763 233.393 85.0763C232.061 85.0763 230.992 84.444 230.97 83.005H231.996Z" fill="white"/>
<path d="M236.996 79.124H238.416L240.01 83.6591H240.031L241.582 79.124H243.001V84.9237H242.04V80.454H242.018L240.403 84.9237H239.573L237.957 80.454H237.935V84.9237H236.975V79.124H236.996Z" fill="white"/>
<path d="M249.878 82.0238C249.878 83.6809 248.83 85.0545 247.105 85.0545C245.38 85.0545 244.332 83.6809 244.332 82.0238C244.332 80.3668 245.38 78.9932 247.105 78.9932C248.83 78.9932 249.878 80.3668 249.878 82.0238ZM245.336 82.0238C245.336 83.1358 245.86 84.226 247.105 84.226C248.35 84.226 248.874 83.1358 248.874 82.0238C248.874 80.9119 248.35 79.8217 247.105 79.8217C245.86 79.8217 245.336 80.9119 245.336 82.0238Z" fill="white"/>
<path d="M172.887 97.9184C172.887 100.905 171.271 102.323 167.996 102.323C164.721 102.323 163.083 100.905 163.083 97.9184V91.3338H166.402V97.1771C166.402 98.2673 166.402 99.6409 168.018 99.6409C169.59 99.6409 169.59 98.2673 169.59 97.1771V91.3338H172.909V97.9184H172.887Z" fill="white"/>
<path d="M175.311 91.3338H183.63V94.081H178.629V95.411H182.909V97.962H178.629V102.061H175.311V91.3338Z" fill="white"/>
<path d="M185.55 91.3338H191.096C194.022 91.3338 195.048 93.4706 195.048 94.9968C195.048 97.5914 193.301 98.8124 190.834 98.8124H188.869V102.061H185.55V91.3338ZM188.869 96.2614H190.157C191.009 96.2614 191.926 96.196 191.926 95.1276C191.926 94.1464 191.183 94.081 190.353 94.081H188.869V96.2614Z" fill="white"/>
<path d="M196.904 91.3338H205.791V94.081H200.223V95.411H205.289V97.962H200.223V99.292H205.966V102.039H196.904V91.3338Z" fill="white"/>
<path d="M208.259 91.3338H211.578V99.3138H216.338V102.061H208.259V91.3338Z" fill="white"/>
<path d="M268.526 64.0143H103.782L103.672 62.5099C103.323 57.7786 102.209 42.9742 102.078 40.5976C101.423 39.0278 96.3796 29.2163 93.1917 23.0678L84.7197 13.1255H268.744L269.159 13.409C269.552 13.6706 278.963 20.168 278.963 39.9871C278.963 60.1115 269.203 63.7745 268.788 63.9271L268.526 64.0143ZM106.817 60.7438H267.914C268.46 60.4604 270.054 59.501 271.648 57.1899C273.504 54.4645 275.709 49.2535 275.709 39.9871C275.709 30.5899 273.417 24.5941 271.517 21.2146C269.967 18.4673 268.395 16.9847 267.718 16.396H91.8161L95.921 21.2146L96.0084 21.389C96.0302 21.4326 98.3229 25.8368 100.594 30.2629C105.288 39.4203 105.354 39.7473 105.354 40.2706C105.376 41.0119 106.205 52.3932 106.817 60.7438ZM102.057 40.2706C102.057 40.3142 102.057 40.3578 102.057 40.3796C102.057 40.336 102.057 40.2924 102.057 40.2706Z" fill="white"/>
</svg>
