<svg width="140" height="140" viewBox="0 0 140 140" fill="none" xmlns="http://www.w3.org/2000/svg">
<path d="M21.6742 110.594C21.0884 111.102 20.9713 111.961 21.4789 112.547C21.9866 113.133 22.8457 113.133 23.4315 112.625C24.0173 112.117 24.1344 111.258 23.6268 110.673C23.1191 110.087 22.299 110.087 21.6742 110.594Z" fill="white"/>
<path d="M10.9357 92.0839L4.49219 94.9347L5.50753 97.2387L11.7558 94.466C12.9273 93.9584 13.9036 93.8022 14.2942 94.7003C14.6847 95.5985 13.9036 96.2234 12.7711 96.731L6.52287 99.5037L7.53822 101.847L13.9817 98.996C16.2467 97.9807 17.6135 96.2624 16.5201 93.7631C15.4267 91.2638 13.2007 91.0685 10.9357 92.0839Z" fill="white"/>
<path d="M13.3541 85.9137L6.79339 87.632V87.5929L12.7292 83.4144L12.1044 80.7979L1.24805 83.5316L1.79477 85.6404L8.47261 83.9221V83.9611L2.4196 88.1397L3.08348 90.8342L13.9398 88.1006L13.3541 85.9137Z" fill="white"/>
<path d="M11.5204 75.8383L0.429688 77.2052L0.70305 79.7435L11.7937 78.3767L11.5204 75.8383Z" fill="white"/>
<path d="M11.2078 68.7309L0 66.0364L0.0390511 68.809L8.2399 70.254V70.293L0.0781022 71.8551L0.117155 74.7059L11.2859 71.9722L11.2078 68.7309Z" fill="white"/>
<path d="M12.2614 58.7337L9.99636 58.4213L9.5668 61.5845L7.18464 61.233L7.57516 58.4994L5.50542 58.226L5.1149 60.9597L2.92801 60.6473L3.35758 57.6793L1.17068 57.3669L0.389648 62.717L11.4803 64.2791L12.2614 58.7337Z" fill="white"/>
<path d="M13.3552 54.3599L9.09861 53.1103L9.29387 52.4074L13.9801 52.2121L14.722 49.6347L9.41102 50.0643C9.37197 49.2832 8.74714 48.2288 7.14602 47.7602C4.99818 47.1354 3.55327 48.0336 2.96749 50.1033L1.95215 53.5399L12.6914 56.664L13.3552 54.3599ZM7.57559 51.8997L7.38033 52.6026L4.68577 51.8216L4.92008 51.0796C5.07628 50.5329 5.5449 49.908 6.5993 50.2205C7.53654 50.4938 7.77085 51.1968 7.57559 51.8997Z" fill="white"/>
<path d="M8.16239 44.8704C9.84161 45.6514 10.9741 45.0656 12.0285 44.2065C12.8486 43.5426 13.3953 43.1912 14.0592 43.5036C14.684 43.816 14.8793 44.4018 14.645 44.9875C14.3716 45.5733 13.7858 46.0419 13.122 46.2762L14.2935 48.2288C15.1917 47.9164 16.207 47.0963 16.7538 45.8857C17.5348 44.2065 17.1052 42.2149 14.9183 41.1995C13.161 40.3794 11.8723 41.2776 10.9741 41.9806C10.1931 42.6054 9.72446 42.9178 9.06058 42.6444C8.3186 42.293 8.24049 41.6681 8.4748 41.1605C8.70911 40.6528 9.13868 40.3013 9.72446 40.1061L8.59196 38.1535C7.69377 38.4659 6.87369 39.1688 6.36601 40.3013C5.70214 41.7462 5.89739 43.855 8.16239 44.8704Z" fill="white"/>
<path d="M20.1903 38.8174L10.5836 33.0768L9.29492 35.2637L18.9016 41.0043L20.1903 38.8174Z" fill="white"/>
<path d="M23.3515 34.2874C25.3041 31.7881 24.484 29.2888 21.8285 27.18C19.1339 25.0712 16.5175 24.8369 14.5258 27.3752L12.5732 29.8745L21.3599 36.7867L23.3515 34.2874ZM15.9317 29.2107L16.3222 28.742C17.0642 27.7658 18.5091 27.8439 20.2664 29.2107C21.9847 30.5384 22.3752 31.9443 21.6332 32.9206L21.2427 33.3892L15.9317 29.2107Z" fill="white"/>
<path d="M28.6239 28.2734L27.5695 26.477L29.405 24.7588L31.1232 25.9303L33.0368 24.1339L23.4691 17.7685L21.165 19.9164L26.7885 29.9526L28.6239 28.2734ZM23.8987 20.6974L23.9377 20.6583L27.8429 23.5482L26.437 24.8369L23.8987 20.6974Z" fill="white"/>
<path d="M36.9038 21.4784C39.5593 19.7211 39.5593 17.0656 37.6848 14.2539C35.7713 11.4031 33.3892 10.3877 30.6946 12.1451L28.0781 13.9024L34.2873 23.2357L36.9038 21.4784ZM31.9442 13.9805C32.9596 13.3166 34.3264 13.8243 35.537 15.6597C36.7476 17.4561 36.6695 18.9401 35.6932 19.6039L35.1855 19.9554L31.4366 14.332L31.9442 13.9805Z" fill="white"/>
<path d="M47.6037 15.5816L46.6665 13.5509L43.7767 14.9177L42.7613 12.7308L45.2606 11.5593L44.3624 9.64576L41.8631 10.8173L40.9259 8.82568L43.6205 7.57602L42.6832 5.54533L37.8018 7.84938L42.5661 18.0028L47.6037 15.5816Z" fill="white"/>
<path d="M55.2974 13.1214L54.2039 8.82569L56.7813 8.16181L56.2346 6.05302L53.6572 6.7169L53.0714 4.49095L55.8831 3.78802L55.2974 1.56207L50.0645 2.92888L52.8371 13.7462L55.2974 13.1214Z" fill="white"/>
<path d="M65.4121 11.4031L65.1388 9.13809L61.9756 9.56766L61.6632 7.14645L64.3968 6.79499L64.1234 4.72525L61.3898 5.07671L61.1164 2.88982L64.0844 2.4993L63.811 0.312408L58.4609 0.976287L59.8668 12.106L65.4121 11.4031Z" fill="white"/>
<path d="M75.3699 5.8187C75.448 2.38215 74.0421 0.156207 70.8399 0.0781037L67.7158 0L67.4814 11.2078L70.6056 11.2859C73.8078 11.364 75.2918 9.2162 75.3699 5.8187ZM70.2151 2.30405H70.8399C72.0505 2.3431 72.8706 3.51465 72.8315 5.77965C72.7925 7.92749 71.8943 9.09904 70.6837 9.09904H70.0589L70.2151 2.30405Z" fill="white"/>
<path d="M83.1409 10.4268L80.0168 9.88008L80.4073 7.49792L83.1409 7.96654L83.4924 5.8968L80.7588 5.42818L81.1493 3.28034L84.0782 3.78801L84.4687 1.56207L79.1186 0.663879L77.2441 11.7155L82.7504 12.6527L83.1409 10.4268Z" fill="white"/>
<path d="M88.4531 9.60671L89.156 9.84102L89.1951 14.5663L91.7334 15.3864L91.4601 10.0363C92.2411 10.0363 93.3345 9.41145 93.8422 7.81033C94.5061 5.70154 93.686 4.21758 91.6163 3.5537L88.2188 2.46025L84.7822 13.1214L87.0863 13.8633L88.4531 9.60671ZM89.8589 5.23292L90.6009 5.46723C91.1476 5.66249 91.7725 6.09206 91.421 7.18551C91.1086 8.1618 90.3666 8.35706 89.7027 8.1618L88.9998 7.92749L89.8589 5.23292Z" fill="white"/>
<path d="M95.0912 16.9875L96.4189 15.3864L98.6449 16.5579L98.1372 18.5886L100.48 19.7992L103.175 8.59137L100.363 7.14645L92.8262 15.855L95.0912 16.9875ZM100.558 9.95818L100.597 9.99723L99.2307 14.6444L97.5514 13.7852L100.558 9.95818Z" fill="white"/>
<path d="M106.219 23.8215L107.547 21.908L105.126 20.1897L110.203 12.9651L108.094 11.4812L101.689 20.6583L106.219 23.8215Z" fill="white"/>
<path d="M112.314 29.5231C114.501 31.8662 117.078 31.4366 119.538 29.1326C122.038 26.7895 122.663 24.2511 120.476 21.8689L118.328 19.5649L110.166 27.219L112.314 29.5231ZM118.445 22.9624L118.875 23.431C119.695 24.3292 119.421 25.7351 117.82 27.2971C116.219 28.7811 114.813 28.9764 113.954 28.0782L113.524 27.6095L118.445 22.9624Z" fill="white"/>
<path d="M119.811 39.1688L121.685 37.8801L119.889 35.2637L121.88 33.8969L123.442 36.1619L125.161 34.9513L123.599 32.6863L125.395 31.4366L127.074 33.8969L128.91 32.6472L125.864 28.1953L116.647 34.5607L119.811 39.1688Z" fill="white"/>
<path d="M123.521 46.3153L127.27 44.7142L127.7 45.7295C128.364 47.2525 130.043 48.346 132.308 47.3697C134.768 46.3153 134.807 44.2846 134.182 42.8397L132.816 39.6375L122.506 44.0112L123.521 46.3153ZM131.8 42.7225L132.113 43.4645C132.386 44.0893 132.23 44.7923 131.293 45.1828C130.394 45.5733 129.691 45.2609 129.418 44.6361L129.106 43.8941L131.8 42.7225Z" fill="white"/>
<path d="M127.191 57.3669L129.378 56.7812L128.519 53.6961L130.862 53.0713L131.604 55.7268L133.595 55.141L132.853 52.4855L134.962 51.8997L135.782 54.7895L137.93 54.2038L136.485 48.9708L125.707 51.9778L127.191 57.3669Z" fill="white"/>
<path d="M128.362 64.8648L130.666 64.5524L130.237 61.5845L138.984 60.3349L138.633 57.7965L127.581 59.3976L128.362 64.8648Z" fill="white"/>
<path d="M134.181 66.0754C130.628 66.0754 128.246 67.6766 128.207 70.3321C128.167 72.9876 130.511 74.6278 134.064 74.6668C137.618 74.6668 139.961 73.0657 140 70.4102C140 67.7156 137.696 66.0754 134.181 66.0754ZM134.064 72.0894C132.112 72.0894 130.628 71.5036 130.667 70.3711C130.667 69.1996 132.19 68.6919 134.142 68.6919C136.095 68.6919 137.54 69.2777 137.54 70.4102C137.501 71.5427 136.017 72.0894 134.064 72.0894Z" fill="white"/>
<path d="M136.953 78.9234L128.011 77.5566L127.659 80.0169L136.602 81.3837L136.29 83.4144L138.398 83.7268L139.375 77.2052L137.266 76.8928L136.953 78.9234Z" fill="white"/>
<path d="M126.762 84.4688L128.598 85.4451L127.895 87.8663L125.825 87.7491L125.083 90.2875L136.564 90.7561L137.423 87.7101L127.426 82.0476L126.762 84.4688ZM130.394 86.2652L134.69 88.4911V88.5692L129.886 88.1396L130.394 86.2652Z" fill="white"/>
<path d="M131.683 95.0127C130.004 94.2317 128.872 94.8565 127.817 95.7157C126.997 96.3795 126.451 96.731 125.787 96.4186C125.162 96.1452 124.967 95.5204 125.201 94.9346C125.474 94.3489 126.06 93.8802 126.724 93.6459L125.552 91.6933C124.654 92.0058 123.639 92.8258 123.092 94.0755C122.35 95.7547 122.741 97.7464 124.967 98.7617C126.724 99.5818 128.013 98.6836 128.911 97.9416C129.692 97.3168 130.16 97.0044 130.824 97.2777C131.566 97.6292 131.644 98.254 131.41 98.7617C131.176 99.2694 130.746 99.6208 130.16 99.8161L131.293 101.769C132.191 101.456 133.011 100.714 133.519 99.6208C134.144 98.1369 133.948 96.0281 131.683 95.0127Z" fill="white"/>
<path d="M116.295 110.399C115.788 110.985 115.905 111.844 116.491 112.352C117.076 112.859 117.936 112.859 118.443 112.274C118.951 111.688 118.834 110.829 118.248 110.321C117.662 109.813 116.842 109.813 116.295 110.399Z" fill="white"/>
<path d="M42.801 126.02C43.8944 124.067 43.3477 122.466 41.4732 121.412L38.3491 119.654L32.8818 129.417L34.9906 130.628L37.1775 126.723L37.8414 127.074L36.9823 131.721L39.2863 133.049L40.0673 127.738C40.8093 127.855 41.9809 127.465 42.801 126.02ZM40.575 124.926C40.0673 125.825 39.3254 125.864 38.7005 125.512L38.0367 125.161L39.4035 122.7L40.1064 123.091C40.6141 123.364 41.1217 123.911 40.575 124.926Z" fill="white"/>
<path d="M49.4784 124.77C47.9554 124.184 45.8857 124.536 44.9875 126.84C44.3236 128.597 44.9875 129.652 45.9247 130.667C46.6667 131.448 47.0182 131.995 46.7448 132.659C46.4714 133.322 45.8857 133.557 45.3389 133.322C44.7532 133.088 44.2064 132.541 43.9721 131.878L42.0977 133.205C42.4882 134.064 43.3473 135.041 44.597 135.509C46.3152 136.173 48.2678 135.627 49.127 133.362C49.8299 131.526 48.8536 130.315 48.0726 129.456C47.4087 128.714 47.0572 128.246 47.2915 127.621C47.5649 126.84 48.1897 126.723 48.7364 126.918C49.2441 127.113 49.6346 127.543 49.8299 128.09L51.7044 126.801C51.392 125.981 50.65 125.2 49.4784 124.77Z" fill="white"/>
<path d="M52.0005 132.134L51.5234 133.947L54.4693 134.722L54.9463 132.91L52.0005 132.134Z" fill="white"/>
<path d="M61.7008 128.207L58.3814 127.738L56.8193 138.829L60.4902 139.336C62.0913 139.571 63.8877 138.985 64.2392 136.642C64.4735 135.08 63.6534 134.103 62.8724 133.791V133.752C63.6924 133.518 64.3954 132.815 64.5906 131.526C64.9031 129.105 63.1067 128.402 61.7008 128.207ZM61.8961 136.056C61.7789 136.915 61.115 137.306 60.4121 137.189L59.4749 137.071L59.8654 134.377L60.7636 134.494C61.3884 134.572 62.0523 135.08 61.8961 136.056ZM62.3256 131.604C62.2085 132.463 61.5837 132.737 60.9588 132.659L60.0997 132.541L60.4511 130.159L61.3103 130.276C61.9351 130.355 62.4428 130.745 62.3256 131.604Z" fill="white"/>
<path d="M74.4326 132.073C74.3936 129.847 73.1439 128.714 70.957 128.753L67.3643 128.792L67.5205 140L69.9417 139.961L69.9026 135.509H70.6446L72.2067 139.961L74.8622 139.922L72.8706 134.963C73.6516 134.65 74.4717 133.713 74.4326 132.073ZM70.6446 133.713H69.9026L69.8636 130.862H70.6446C71.2304 130.862 71.9333 131.097 71.9724 132.229C71.9724 133.244 71.3475 133.674 70.6446 133.713Z" fill="white"/>
<path d="M78.534 128.129L77.8311 139.649L80.3304 139.219L80.4475 137.11L82.9078 136.681L83.7278 138.594L86.3443 138.126L81.7362 127.582L78.534 128.129ZM80.3304 135.119L80.4475 130.276H80.5256L82.2439 134.806L80.3304 135.119Z" fill="white"/>
<path d="M90.7949 129.808C89.7796 129.652 89.2329 129.534 89.0376 128.871C88.7642 128.09 89.1938 127.621 89.7015 127.426C90.2091 127.269 90.7949 127.308 91.3026 127.621L91.9665 125.434C91.1464 125.004 90.0529 124.887 88.8814 125.278C87.3584 125.785 85.9525 127.387 86.7335 129.73C87.3193 131.487 88.5299 131.917 89.8577 132.073C90.9121 132.229 91.5369 132.385 91.7712 133.088C92.0055 133.752 91.6931 134.338 91.1073 134.533C90.4825 134.728 89.7405 134.65 89.1157 134.299L88.4909 136.525C89.35 136.954 90.6387 137.15 91.8884 136.72C93.6067 136.134 94.7782 134.455 94.0362 132.151C93.4504 130.276 91.9274 129.964 90.7949 129.808Z" fill="white"/>
<path d="M93.2559 123.911L97.9421 134.064L100.246 133.01L95.5599 122.818L93.2559 123.911Z" fill="white"/>
<path d="M104.346 128.129L99.8549 120.474L97.6289 121.802L103.33 131.448L108.095 128.597L106.923 126.566L104.346 128.129Z" fill="white"/>
<path d="M120.827 55.3363L114.344 54.9848C114.461 54.3209 114.5 53.618 114.5 52.9541C114.5 51.9388 114.422 50.8844 114.266 49.869C114.11 48.7756 113.875 47.7212 113.563 46.7058L117.234 46.2763C112.235 36.3571 104.23 28.2344 94.4277 23.0796L74.9409 46.3153C74.9409 45.4952 74.8628 44.6361 74.7066 43.816L74.6676 43.5817V43.5427C74.6285 43.2302 74.5504 42.9178 74.4723 42.6054L86.1878 19.604C81.0721 17.9638 75.5658 17.0656 69.8642 17.0656C64.1627 17.0656 58.6564 17.9638 53.5016 19.643L65.3733 42.9178C64.8266 43.6989 64.3579 44.5189 63.9284 45.339L45.2617 23.0796C35.4597 28.2344 27.4541 36.3571 22.4555 46.2763L36.7093 48.0336L34.4834 54.5162L18.9408 55.3363C17.574 60.0225 16.8711 64.943 16.8711 70.0587C16.8711 76.1508 17.8864 82.0476 19.8 87.4758L45.8865 69.1996L45.4179 69.8244L44.1682 71.4646H46.238H49.3621H49.7917L42.2937 78.4549H38.8572H37.7247L37.7637 79.5093C37.8028 80.4465 37.92 81.4228 38.0371 82.321L23.5489 95.8329C24.5252 97.5511 25.5796 99.2304 26.7512 100.831C28.1961 101.73 29.9144 102.237 31.7107 102.237C34.8349 102.237 37.6075 100.714 39.3258 98.4103C41.0441 100.753 43.8168 102.237 46.9409 102.237C50.065 102.237 52.8377 100.714 54.556 98.4103C56.3133 100.753 59.0469 102.237 62.171 102.237C65.2952 102.237 68.0678 100.714 69.7861 98.4103C71.5044 100.753 74.2771 102.237 77.4012 102.237C80.5253 102.237 83.298 100.714 85.0163 98.4103C86.7736 100.714 89.5072 102.237 92.6314 102.237C95.7555 102.237 98.5282 100.714 100.246 98.4103C101.965 100.714 104.737 102.237 107.862 102.237C109.697 102.237 111.376 101.73 112.86 100.831C114.032 99.2304 115.086 97.5511 116.062 95.8329L101.574 82.321C101.691 81.3837 101.809 80.4465 101.848 79.5093L101.887 78.4549H100.793H97.4738L89.9758 71.4646H96.3022H97.0832L119.928 87.4367C121.842 81.9695 122.857 76.1118 122.857 70.0197C122.896 64.943 122.154 60.0225 120.827 55.3363ZM81.2673 50.6891C81.1892 51.4311 81.1502 52.2121 81.1502 52.9541C81.1502 53.0322 81.1502 53.1494 81.1502 53.2665L77.4793 53.0713C77.4793 52.4464 77.4403 51.8216 77.3621 51.1968L81.2673 50.6891ZM84.782 62.9123C85.8364 64.3572 87.0079 65.685 88.2185 66.8175C86.8517 66.7784 85.4849 66.5441 84.1962 66.1145L78.3384 60.6473V59.8663V58.3823L84.782 62.9123ZM63.7331 48.8537C64.397 46.3544 65.6076 44.1284 67.2087 42.2539C67.0525 42.5273 66.9354 42.8397 66.9354 43.1521C66.9354 43.777 67.2478 44.2846 67.7164 44.597C68.3803 43.5817 68.966 42.4492 69.3956 41.2777C69.4347 41.1214 69.5128 41.0043 69.5518 40.8481C69.6299 40.5747 69.708 40.3014 69.7861 40.028C70.0985 38.8955 70.3328 37.724 70.3719 36.4743C70.3719 36.4743 70.3719 36.4743 70.3719 36.5134C72.0511 38.6612 73.1836 41.1996 73.6522 44.0113C73.6522 44.0113 73.6522 44.0113 73.6522 44.0503C73.8084 44.9095 73.8866 45.8076 73.8866 46.7449C73.8866 47.0573 73.8865 47.3697 73.8475 47.6821C73.7694 48.7756 73.6132 49.83 73.3789 50.8844C73.6132 51.0406 73.9256 51.1187 74.199 51.1187C75.1362 51.1187 75.9172 50.3376 75.9172 49.4004C75.9172 49.3614 75.9172 49.3223 75.9172 49.3223C76.1906 50.572 76.3468 51.8216 76.3468 53.1494C76.3468 54.5943 76.1515 55.9611 75.8391 57.2888H72.8712C73.496 56.1563 73.9646 54.9457 74.199 53.618C74.238 53.3446 74.2771 53.1103 74.3161 52.876C73.7303 53.8523 72.9493 54.7114 72.0511 55.3753C72.0511 55.4144 72.0121 55.4534 72.0121 55.4925C72.0121 55.4534 72.0121 55.4534 72.0121 55.4144C71.934 54.8286 71.8949 54.2428 71.8949 53.618C71.8949 52.7589 72.2073 50.8063 72.2073 50.8063C72.3245 50.1033 72.4026 49.3614 72.4026 48.6194C72.4026 46.2763 71.7387 44.0894 70.6062 42.2149C70.45 45.2609 68.966 48.1507 67.443 49.83C67.1306 49.4004 66.8572 48.9318 66.6229 48.4632C66.2324 49.3614 65.9591 50.3376 65.8028 51.353C65.8028 51.392 65.8028 51.4311 65.8028 51.4311C65.8028 51.5092 65.7638 51.5873 65.7638 51.6264C65.6857 52.134 65.6466 52.6807 65.6466 53.2275C65.6466 54.6333 65.881 56.0001 66.3105 57.2498H63.616C63.2645 55.922 63.1083 54.5552 63.1083 53.1103C63.1864 51.5873 63.3816 50.1814 63.7331 48.8537ZM62.4054 57.6403H77.3231V59.8663H62.4054V57.6403ZM64.0846 62.5999V60.6863H75.6829V62.5999H64.0846ZM74.3161 63.459C73.3008 68.2624 72.5978 73.4562 72.2464 78.4939H67.4821C67.1306 73.4562 66.4277 68.2624 65.4123 63.459H74.3161ZM62.2491 51.1577C62.171 51.7826 62.132 52.4074 62.132 53.0322C62.132 53.0322 62.132 53.0322 62.132 53.0713L50.2212 53.6961L48.7763 49.5176L62.2491 51.1577ZM61.39 58.3823V59.8663V60.6473L55.4932 66.1536C54.8684 65.3725 54.3217 64.5525 53.814 63.6543L61.39 58.3823ZM49.3621 70.4883H46.238L48.7373 67.1689L47.4876 62.5999H37.5685L36.3188 67.1689L38.7791 70.4883H35.9283H35.694H30.1096H29.1724H26.1654C29.0552 68.731 31.3593 66.0755 32.7261 62.9513L42.5671 34.4436L52.4081 62.9513C53.7749 66.0755 56.079 68.731 58.9688 70.4883H56.7429H55.0246H50.026H49.3621ZM100.871 79.5093C100.442 88.0616 96.5756 95.7157 90.6007 101.066C88.7652 100.597 87.1251 99.5037 85.9145 97.9417L85.0944 96.8482L84.2743 97.9417C82.6341 100.129 80.1739 101.378 77.4793 101.378C74.7847 101.378 72.2854 100.129 70.6843 97.9417L69.8642 96.8482L69.0441 97.9417C67.404 100.089 64.9437 101.339 62.2491 101.339C59.5546 101.339 57.0553 100.089 55.4542 97.9026L54.6341 96.8092L53.814 97.9026C52.6424 99.5037 51.0023 100.558 49.1278 101.027C43.1529 95.6767 39.2868 88.0225 38.8572 79.4702H100.871V79.5093ZM106.924 67.8328C108.955 67.8328 110.908 67.4423 112.665 66.7784H112.938V70.5274H99.2701V70.4883C99.2311 70.4883 99.2311 70.4883 99.192 70.4883C102.511 68.3014 106.378 63.1856 107.159 61.7798C108.564 59.2805 109.424 56.1563 109.424 52.7588C109.424 44.4018 104.308 37.6458 97.9814 37.6458C97.9424 37.6458 97.8643 37.6458 97.7862 37.6458C97.7081 37.6458 97.63 37.6458 97.5909 37.6458C91.2645 37.6458 86.1488 44.4018 86.1488 52.7588C86.1488 56.1173 87.0079 59.2414 88.4138 61.7798C89.1948 63.1466 93.1 68.3014 96.3803 70.4883C96.3413 70.4883 96.3413 70.4883 96.3022 70.4883V70.5274H82.6341V66.7784H82.9075C84.7039 67.4813 86.6174 67.8328 88.6481 67.8328C89.3901 67.8328 90.132 67.7938 90.835 67.6766C86.1488 64.1619 82.1265 58.2261 82.1265 52.9541C82.1265 51.9388 82.2046 50.9625 82.3217 50.0252C83.4933 41.7463 89.5853 35.8885 97.7471 35.8495C97.7471 35.8495 97.7471 35.8495 97.7862 35.8495C97.7862 35.8495 97.7862 35.8495 97.8252 35.8495C105.948 35.8885 112.079 41.7072 113.251 50.0252C113.368 50.9625 113.446 51.9388 113.446 52.9541C113.446 58.2261 109.463 64.1619 104.737 67.6766C105.479 67.7938 106.182 67.8328 106.924 67.8328ZM87.2032 53.5789C87.2032 53.3056 87.1641 53.0322 87.1641 52.7588C87.1641 51.7826 87.2422 50.8453 87.3594 49.9471L107.666 47.4478C108.174 49.088 108.447 50.8844 108.447 52.7588C108.447 53.4227 108.408 54.0476 108.33 54.6724L87.2032 53.5789Z" fill="white"/>
<path d="M101.729 112.43C101.222 112 100.753 111.493 100.363 110.946C98.6053 113.289 95.8717 114.773 92.7476 114.773C89.6234 114.773 86.8507 113.25 85.1325 110.946C83.4142 113.25 80.6415 114.773 77.5174 114.773C74.3933 114.773 71.6206 113.25 69.9023 110.946C68.184 113.25 65.4114 114.773 62.2872 114.773C59.1631 114.773 56.3904 113.25 54.6722 110.946C52.9148 113.25 50.1812 114.773 47.0571 114.773C43.9329 114.773 41.1603 113.25 39.442 110.946C39.0515 111.493 38.5829 111.961 38.0752 112.43C46.9399 119.108 57.9916 123.091 69.9804 123.091C81.8131 123.091 92.8647 119.108 101.729 112.43ZM69.8633 111.727L71.1129 113.172V115.398H68.6136V113.172L69.8633 111.727ZM67.364 116.218H72.3235V117.663H67.364V116.218ZM68.6136 118.483H71.1129V119.03L70.5271 119.576H69.1994L68.6136 119.03V118.483ZM69.1994 120.396H70.5271V121.021H69.1994V120.396Z" fill="white"/>
<path d="M100.363 102.667C98.6054 105.01 95.8718 106.494 92.7477 106.494C89.6235 106.494 86.8509 104.971 85.1326 102.667C83.4143 105.01 80.6416 106.494 77.5175 106.494C74.3934 106.494 71.6207 104.971 69.9024 102.667C68.1842 104.971 65.4115 106.494 62.2874 106.494C59.1632 106.494 56.3905 104.971 54.6723 102.667C52.9149 104.971 50.1813 106.494 47.0572 106.494C43.9331 106.494 41.1604 104.971 39.4421 102.667C37.6848 104.971 34.9512 106.494 31.827 106.494C31.7099 106.494 31.5537 106.494 31.4365 106.494C32.6081 107.744 33.8577 108.915 35.1464 110.048C36.8647 109.423 38.3877 108.29 39.4421 106.806C41.1604 109.149 43.9331 110.633 47.0572 110.633C50.1813 110.633 52.954 109.11 54.6723 106.806C56.4296 109.149 59.1632 110.633 62.2874 110.633C65.4115 110.633 68.1842 109.11 69.9024 106.806C71.6207 109.149 74.3934 110.633 77.5175 110.633C80.6416 110.633 83.4143 109.11 85.1326 106.806C86.8899 109.11 89.6235 110.633 92.7477 110.633C95.8718 110.633 98.6445 109.11 100.363 106.806C101.456 108.251 102.94 109.384 104.658 110.048C105.947 108.915 107.197 107.744 108.368 106.494C108.251 106.494 108.095 106.494 107.939 106.494C104.854 106.494 102.081 105.01 100.363 102.667Z" fill="white"/>
<path d="M38.3496 59.3195H46.7067L42.5281 41.7853L38.3496 59.3195ZM44.3636 54.0085L40.5756 54.2037L41.9033 48.6584L43.1139 48.8146L44.3636 54.0085Z" fill="white"/>
</svg>
